<svg width="312" height="56" viewBox="0 0 312 56" fill="none" xmlns="http://www.w3.org/2000/svg">
<path d="M12.3723 51.8342C12.3723 52.1075 12.1507 52.3291 11.8774 52.3291H0.494893C0.221571 52.3291 0 52.1075 0 51.8342V40.4517C0 40.1783 0.221571 39.9568 0.494892 39.9568H12.3723V51.8342Z" fill="#FF5E00" style="fill:#FF5E00;fill:color(display-p3 1.0000 0.3686 0.0000);fill-opacity:1;"/>
<path d="M24.7446 27.0896C24.7446 27.3629 24.9662 27.5845 25.2395 27.5845H37.1169V39.4619C37.1169 39.7352 36.8954 39.9568 36.622 39.9568H12.3723V15.707C12.3723 15.4337 12.5939 15.2122 12.8672 15.2122H24.7446V27.0896Z" fill="#FF5E00" style="fill:#FF5E00;fill:color(display-p3 1.0000 0.3686 0.0000);fill-opacity:1;"/>
<path d="M49.4892 27.0896C49.4892 27.3629 49.2677 27.5845 48.9943 27.5845H37.1169V15.2122H48.9943C49.2677 15.2122 49.4892 15.4337 49.4892 15.707V27.0896Z" fill="#FF5E00" style="fill:#FF5E00;fill:color(display-p3 1.0000 0.3686 0.0000);fill-opacity:1;"/>
<path d="M37.1169 15.2122H24.7446V3.33474C24.7446 3.06141 24.9662 2.83984 25.2395 2.83984H36.622C36.8954 2.83984 37.1169 3.06141 37.1169 3.33474V15.2122Z" fill="#FF5E00" style="fill:#FF5E00;fill:color(display-p3 1.0000 0.3686 0.0000);fill-opacity:1;"/>
<path d="M64.772 43.084V12.1549H76.3483C78.8521 12.1549 80.9287 12.582 82.5783 13.4362C84.2278 14.2905 85.4503 15.4392 86.2456 16.8826C87.0409 18.326 87.4386 19.9755 87.4386 21.8313C87.4386 23.5397 87.0556 25.1156 86.2898 26.559C85.5239 28.0024 84.3162 29.1806 82.6667 30.0938C81.0171 30.9774 78.911 31.4193 76.3483 31.4193H70.7369V43.084H64.772ZM70.7369 26.6032H75.9948C77.9095 26.6032 79.2792 26.1761 80.104 25.3218C80.9582 24.4381 81.3853 23.2746 81.3853 21.8313C81.3853 20.2995 80.9582 19.1213 80.104 18.2965C79.2792 17.4423 77.9095 17.0152 75.9948 17.0152H70.7369V26.6032ZM91.9126 43.084V20.815H97.8775V43.084H91.9126ZM94.9171 17.7663C93.8567 17.7663 92.973 17.457 92.2661 16.8384C91.5886 16.1904 91.2498 15.3803 91.2498 14.4083C91.2498 13.4362 91.5886 12.6409 92.2661 12.0223C92.973 11.3743 93.8567 11.0503 94.9171 11.0503C96.007 11.0503 96.8907 11.3743 97.5682 12.0223C98.2752 12.6409 98.6286 13.4362 98.6286 14.4083C98.6286 15.3803 98.2752 16.1904 97.5682 16.8384C96.8907 17.457 96.007 17.7663 94.9171 17.7663ZM101.828 43.084L109.826 31.9495L101.828 20.815H108.279L113.625 28.4589L118.972 20.815H125.379L117.381 31.9495L125.379 43.084H118.972L113.625 35.3959L108.279 43.084H101.828ZM142.314 43.6142C141.165 43.6142 140.134 43.4669 139.221 43.1724C138.337 42.8778 137.542 42.4801 136.835 41.9794C136.158 41.4492 135.583 40.86 135.112 40.212L134.449 43.084H129.147V11.2712H135.112V23.9079C135.819 22.877 136.747 22.0227 137.895 21.3452C139.074 20.6383 140.532 20.2848 142.27 20.2848C144.332 20.2848 146.158 20.8003 147.749 21.8313C149.369 22.8328 150.635 24.2172 151.548 25.9846C152.491 27.7225 152.962 29.7256 152.962 31.9937C152.962 34.2029 152.491 36.1912 151.548 37.9586C150.635 39.726 149.383 41.1104 147.793 42.1119C146.202 43.1134 144.376 43.6142 142.314 43.6142ZM140.9 38.4004C142.078 38.4004 143.109 38.1353 143.993 37.6051C144.906 37.0454 145.613 36.2943 146.114 35.3517C146.615 34.3796 146.865 33.2603 146.865 31.9937C146.865 30.7271 146.615 29.6077 146.114 28.6357C145.613 27.6342 144.906 26.8683 143.993 26.3381C143.109 25.7784 142.078 25.4986 140.9 25.4986C139.751 25.4986 138.72 25.7784 137.807 26.3381C136.923 26.8683 136.216 27.6194 135.686 28.5915C135.186 29.5635 134.935 30.6829 134.935 31.9495C134.935 33.2161 135.186 34.3502 135.686 35.3517C136.216 36.3238 136.923 37.0749 137.807 37.6051C138.72 38.1353 139.751 38.4004 140.9 38.4004ZM158.9 52.8046L164.29 40.6097H162.965L154.039 20.815H160.534L166.897 35.175L172.641 20.815H178.959L165.218 52.8046H158.9Z" fill="white" style="fill:white;fill-opacity:1;"/>
<line x1="197.136" y1="1.77316e-08" x2="197.136" y2="55.1683" stroke="white" stroke-opacity="0.5" style="stroke:white;stroke-opacity:0.5;" stroke-width="0.811299"/>
<path d="M214.444 18.4344V11.2329H215.339L215.439 12.0087C215.545 11.8562 215.677 11.7136 215.837 11.581C215.996 11.4417 216.185 11.329 216.404 11.2428C216.629 11.1566 216.891 11.1135 217.189 11.1135C217.667 11.1135 218.085 11.2295 218.443 11.4616C218.807 11.6937 219.089 12.0087 219.288 12.4066C219.494 12.7978 219.596 13.2454 219.596 13.7494C219.596 14.2534 219.494 14.7043 219.288 15.1022C219.083 15.4934 218.797 15.8018 218.433 16.0273C218.075 16.2527 217.657 16.3655 217.179 16.3655C216.788 16.3655 216.443 16.2892 216.145 16.1367C215.846 15.9775 215.611 15.7587 215.439 15.4802V18.4344H214.444ZM217.02 15.5001C217.325 15.5001 217.594 15.4271 217.826 15.2812C218.065 15.1354 218.25 14.9298 218.383 14.6645C218.522 14.3993 218.592 14.0909 218.592 13.7395C218.592 13.388 218.522 13.083 218.383 12.8244C218.25 12.5591 218.065 12.3535 217.826 12.2077C217.594 12.0551 217.325 11.9789 217.02 11.9789C216.709 11.9789 216.433 12.0551 216.195 12.2077C215.963 12.3535 215.78 12.5591 215.648 12.8244C215.515 13.083 215.449 13.388 215.449 13.7395C215.449 14.0909 215.515 14.3993 215.648 14.6645C215.78 14.9298 215.963 15.1354 216.195 15.2812C216.433 15.4271 216.709 15.5001 217.02 15.5001ZM222.847 16.3655C222.376 16.3655 221.952 16.256 221.574 16.0372C221.202 15.8184 220.907 15.5133 220.688 15.1221C220.476 14.7242 220.37 14.2667 220.37 13.7494C220.37 13.2189 220.479 12.7581 220.698 12.3668C220.917 11.9689 221.215 11.6606 221.593 11.4417C221.971 11.2229 222.396 11.1135 222.867 11.1135C223.344 11.1135 223.769 11.2229 224.14 11.4417C224.511 11.6606 224.803 11.9656 225.015 12.3569C225.234 12.7481 225.343 13.209 225.343 13.7395C225.343 14.27 225.234 14.7309 225.015 15.1221C224.803 15.5133 224.508 15.8184 224.13 16.0372C223.752 16.256 223.324 16.3655 222.847 16.3655ZM222.847 15.51C223.119 15.51 223.364 15.4437 223.583 15.3111C223.808 15.1785 223.987 14.9828 224.12 14.7242C224.259 14.459 224.329 14.1307 224.329 13.7395C224.329 13.3482 224.263 13.0233 224.13 12.7647C223.997 12.4994 223.818 12.3005 223.593 12.1679C223.374 12.0352 223.132 11.9689 222.867 11.9689C222.601 11.9689 222.356 12.0352 222.131 12.1679C221.905 12.3005 221.723 12.4994 221.584 12.7647C221.451 13.0233 221.385 13.3482 221.385 13.7395C221.385 14.1307 221.451 14.459 221.584 14.7242C221.723 14.9828 221.902 15.1785 222.121 15.3111C222.346 15.4437 222.588 15.51 222.847 15.51ZM227.154 16.2461L225.682 11.2329H226.667L227.761 15.4106L227.572 15.4006L228.786 11.2329H229.9L231.113 15.4006L230.924 15.4106L232.008 11.2329H233.013L231.541 16.2461H230.516L229.243 11.8993H229.442L228.169 16.2461H227.154ZM235.805 16.3655C235.327 16.3655 234.903 16.256 234.532 16.0372C234.16 15.8184 233.869 15.5133 233.656 15.1221C233.451 14.7309 233.348 14.2766 233.348 13.7594C233.348 13.2289 233.451 12.768 233.656 12.3768C233.869 11.9789 234.16 11.6705 234.532 11.4517C234.903 11.2262 235.334 11.1135 235.825 11.1135C236.315 11.1135 236.737 11.2229 237.088 11.4417C237.439 11.6606 237.711 11.9524 237.904 12.3171C238.096 12.6752 238.192 13.073 238.192 13.5107C238.192 13.577 238.189 13.65 238.182 13.7295C238.182 13.8025 238.179 13.8854 238.172 13.9782H234.074V13.272H237.197C237.178 12.8542 237.038 12.5293 236.78 12.2972C236.521 12.0585 236.199 11.9391 235.815 11.9391C235.543 11.9391 235.294 12.0021 235.069 12.1281C234.843 12.2474 234.661 12.4265 234.522 12.6652C234.389 12.8973 234.323 13.1924 234.323 13.5505V13.829C234.323 14.2003 234.389 14.5153 234.522 14.774C234.661 15.0259 234.843 15.2182 235.069 15.3509C235.294 15.4769 235.54 15.5399 235.805 15.5399C236.123 15.5399 236.385 15.4702 236.591 15.331C236.796 15.1917 236.949 15.0027 237.048 14.764H238.043C237.957 15.069 237.811 15.3442 237.605 15.5896C237.4 15.8283 237.144 16.0173 236.839 16.1566C236.541 16.2958 236.196 16.3655 235.805 16.3655ZM239.098 16.2461V11.2329H239.993L240.083 12.1778C240.196 11.9524 240.342 11.7634 240.521 11.6108C240.7 11.4517 240.909 11.329 241.147 11.2428C241.393 11.1566 241.671 11.1135 241.983 11.1135V12.1679H241.625C241.419 12.1679 241.224 12.1944 241.038 12.2474C240.852 12.2939 240.686 12.3768 240.541 12.4961C240.401 12.6155 240.292 12.7779 240.212 12.9835C240.133 13.1891 240.093 13.4444 240.093 13.7494V16.2461H239.098ZM244.82 16.3655C244.342 16.3655 243.918 16.256 243.546 16.0372C243.175 15.8184 242.883 15.5133 242.671 15.1221C242.465 14.7309 242.363 14.2766 242.363 13.7594C242.363 13.2289 242.465 12.768 242.671 12.3768C242.883 11.9789 243.175 11.6705 243.546 11.4517C243.918 11.2262 244.349 11.1135 244.839 11.1135C245.33 11.1135 245.751 11.2229 246.103 11.4417C246.454 11.6606 246.726 11.9524 246.918 12.3171C247.111 12.6752 247.207 13.073 247.207 13.5107C247.207 13.577 247.204 13.65 247.197 13.7295C247.197 13.8025 247.194 13.8854 247.187 13.9782H243.089V13.272H246.212C246.192 12.8542 246.053 12.5293 245.794 12.2972C245.536 12.0585 245.214 11.9391 244.83 11.9391C244.558 11.9391 244.309 12.0021 244.084 12.1281C243.858 12.2474 243.676 12.4265 243.536 12.6652C243.404 12.8973 243.338 13.1924 243.338 13.5505V13.829C243.338 14.2003 243.404 14.5153 243.536 14.774C243.676 15.0259 243.858 15.2182 244.084 15.3509C244.309 15.4769 244.554 15.5399 244.82 15.5399C245.138 15.5399 245.4 15.4702 245.605 15.331C245.811 15.1917 245.963 15.0027 246.063 14.764H247.058C246.971 15.069 246.826 15.3442 246.62 15.5896C246.414 15.8283 246.159 16.0173 245.854 16.1566C245.556 16.2958 245.211 16.3655 244.82 16.3655ZM250.341 16.3655C249.864 16.3655 249.443 16.2527 249.078 16.0273C248.713 15.7952 248.428 15.4835 248.222 15.0923C248.024 14.6944 247.924 14.2435 247.924 13.7395C247.924 13.2289 248.024 12.7779 248.222 12.3867C248.428 11.9955 248.713 11.6871 249.078 11.4616C249.449 11.2295 249.874 11.1135 250.351 11.1135C250.742 11.1135 251.087 11.1931 251.386 11.3522C251.684 11.5047 251.916 11.7236 252.082 12.0087V9.08433H253.077V16.2461H252.181L252.082 15.4702C251.982 15.6228 251.853 15.7686 251.694 15.9079C251.535 16.0405 251.342 16.1499 251.117 16.2361C250.892 16.3224 250.633 16.3655 250.341 16.3655ZM250.5 15.5001C250.812 15.5001 251.087 15.4271 251.326 15.2812C251.565 15.1354 251.747 14.9298 251.873 14.6645C252.006 14.3993 252.072 14.0909 252.072 13.7395C252.072 13.388 252.006 13.083 251.873 12.8244C251.747 12.5591 251.565 12.3535 251.326 12.2077C251.087 12.0551 250.812 11.9789 250.5 11.9789C250.202 11.9789 249.933 12.0551 249.695 12.2077C249.456 12.3535 249.27 12.5591 249.138 12.8244C249.005 13.083 248.939 13.388 248.939 13.7395C248.939 14.0909 249.005 14.3993 249.138 14.6645C249.27 14.9298 249.456 15.1354 249.695 15.2812C249.933 15.4271 250.202 15.5001 250.5 15.5001ZM259.319 16.3655C259.047 16.3655 258.799 16.3257 258.573 16.2461C258.354 16.1731 258.162 16.0704 257.996 15.9377C257.83 15.8051 257.691 15.6526 257.579 15.4802L257.479 16.2461H256.584V9.08433H257.579V12.0187C257.738 11.7667 257.96 11.5545 258.245 11.3821C258.537 11.203 258.895 11.1135 259.319 11.1135C259.797 11.1135 260.218 11.2295 260.582 11.4616C260.947 11.6871 261.229 11.9988 261.428 12.3966C261.634 12.7879 261.736 13.2388 261.736 13.7494C261.736 14.2468 261.634 14.6944 261.428 15.0923C261.229 15.4901 260.947 15.8018 260.582 16.0273C260.218 16.2527 259.797 16.3655 259.319 16.3655ZM259.16 15.5001C259.465 15.5001 259.734 15.4271 259.966 15.2812C260.204 15.1354 260.39 14.9298 260.523 14.6645C260.662 14.3993 260.732 14.0909 260.732 13.7395C260.732 13.388 260.662 13.083 260.523 12.8244C260.39 12.5591 260.204 12.3535 259.966 12.2077C259.734 12.0551 259.465 11.9789 259.16 11.9789C258.848 11.9789 258.573 12.0551 258.334 12.2077C258.102 12.3535 257.92 12.5591 257.787 12.8244C257.655 13.083 257.588 13.388 257.588 13.7395C257.588 14.0909 257.655 14.3993 257.787 14.6645C257.92 14.9298 258.102 15.1354 258.334 15.2812C258.573 15.4271 258.848 15.5001 259.16 15.5001ZM262.858 18.4344L264.082 15.6891H263.793L261.814 11.2329H262.888L264.459 14.8734L266.041 11.2329H267.085L263.902 18.4344H262.858Z" fill="white" style="fill:white;fill-opacity:1;"/>
<path d="M224.72 45.0849L219.706 37.1998H222.754L227.886 45.0849H224.72ZM221.476 43.1578C220.139 43.1578 218.959 42.8563 217.936 42.2533C216.914 41.6503 216.114 40.8179 215.537 39.756C214.961 38.6811 214.672 37.4423 214.672 36.0396C214.672 34.6369 214.961 33.4047 215.537 32.3428C216.114 31.2679 216.914 30.4289 217.936 29.8259C218.959 29.2229 220.139 28.9214 221.476 28.9214C222.826 28.9214 224.012 29.2229 225.035 29.8259C226.057 30.4289 226.85 31.2679 227.414 32.3428C227.991 33.4047 228.279 34.6369 228.279 36.0396C228.279 37.4423 227.991 38.6811 227.414 39.756C226.85 40.8179 226.057 41.6503 225.035 42.2533C224.012 42.8563 222.826 43.1578 221.476 43.1578ZM221.476 40.7785C222.315 40.7785 223.036 40.5885 223.639 40.2083C224.255 39.815 224.733 39.2644 225.074 38.5566C225.415 37.8487 225.585 37.0097 225.585 36.0396C225.585 35.0564 225.415 34.2174 225.074 33.5227C224.733 32.8148 224.255 32.2707 223.639 31.8906C223.036 31.5104 222.315 31.3203 221.476 31.3203C220.65 31.3203 219.929 31.5104 219.313 31.8906C218.697 32.2707 218.218 32.8148 217.877 33.5227C217.536 34.2174 217.366 35.0564 217.366 36.0396C217.366 37.0097 217.536 37.8487 217.877 38.5566C218.218 39.2644 218.697 39.815 219.313 40.2083C219.929 40.5885 220.65 40.7785 221.476 40.7785ZM234.182 43.1578C233.382 43.1578 232.694 42.994 232.117 42.6662C231.554 42.3254 231.121 41.8338 230.819 41.1915C230.518 40.536 230.367 39.7298 230.367 38.7729V33.0114H233.022V38.4976C233.022 39.2972 233.186 39.9002 233.513 40.3066C233.854 40.713 234.372 40.9162 235.067 40.9162C235.513 40.9162 235.906 40.8179 236.247 40.6212C236.587 40.4115 236.856 40.1165 237.053 39.7364C237.263 39.3431 237.367 38.8646 237.367 38.3009V33.0114H240.002V42.9219H237.682L237.466 41.3095C237.177 41.8731 236.751 42.3254 236.188 42.6662C235.624 42.994 234.955 43.1578 234.182 43.1578ZM242.661 42.9219V33.0114H245.316V42.9219H242.661ZM243.998 31.6546C243.526 31.6546 243.133 31.517 242.818 31.2417C242.517 30.9533 242.366 30.5928 242.366 30.1602C242.366 29.7276 242.517 29.3736 242.818 29.0983C243.133 28.8099 243.526 28.6657 243.998 28.6657C244.483 28.6657 244.877 28.8099 245.178 29.0983C245.493 29.3736 245.65 29.7276 245.65 30.1602C245.65 30.5928 245.493 30.9533 245.178 31.2417C244.877 31.517 244.483 31.6546 243.998 31.6546ZM252.796 43.1578C251.8 43.1578 250.915 42.935 250.141 42.4893C249.368 42.0436 248.765 41.434 248.332 40.6606C247.9 39.8871 247.683 39.0023 247.683 38.006C247.683 36.9835 247.9 36.0855 248.332 35.3121C248.765 34.5255 249.368 33.9094 250.141 33.4637C250.915 33.0049 251.8 32.7754 252.796 32.7754C254.068 32.7754 255.136 33.1097 256.001 33.7783C256.866 34.4469 257.417 35.3645 257.653 36.5312H254.841C254.723 36.0724 254.474 35.7119 254.094 35.4497C253.727 35.1875 253.288 35.0564 252.776 35.0564C252.318 35.0564 251.905 35.1744 251.538 35.4104C251.184 35.6332 250.902 35.9675 250.692 36.4132C250.495 36.8458 250.397 37.3636 250.397 37.9666C250.397 38.4255 250.456 38.8384 250.574 39.2055C250.692 39.5594 250.856 39.8675 251.066 40.1296C251.275 40.3787 251.524 40.5688 251.813 40.6999C252.114 40.831 252.436 40.8965 252.776 40.8965C253.117 40.8965 253.425 40.8375 253.701 40.7195C253.989 40.6016 254.231 40.4377 254.428 40.228C254.625 40.0051 254.762 39.7364 254.841 39.4218H257.653C257.417 40.5622 256.86 41.4733 255.982 42.155C255.116 42.8236 254.054 43.1578 252.796 43.1578ZM266.431 42.9219L262.204 37.4947L265.999 33.0114H269.125L264.229 38.6155V36.5115L269.735 42.9219H266.431ZM259.942 42.9219V28.7641H262.597V42.9219H259.942ZM271.31 47.2479V33.0114H273.67L273.965 34.3879C274.175 34.0995 274.424 33.8373 274.712 33.6013C275 33.3522 275.341 33.1556 275.735 33.0114C276.141 32.8541 276.613 32.7754 277.15 32.7754C278.081 32.7754 278.9 33.0049 279.608 33.4637C280.316 33.9225 280.873 34.5452 281.28 35.3317C281.699 36.1052 281.909 36.99 281.909 37.9863C281.909 38.9826 281.699 39.874 281.28 40.6606C280.86 41.434 280.297 42.0436 279.589 42.4893C278.881 42.935 278.075 43.1578 277.17 43.1578C276.436 43.1578 275.8 43.0267 275.263 42.7646C274.738 42.4893 274.306 42.1157 273.965 41.6437V47.2479H271.31ZM276.541 40.8375C277.065 40.8375 277.524 40.7195 277.917 40.4836C278.324 40.2476 278.638 39.9133 278.861 39.4807C279.084 39.0481 279.195 38.55 279.195 37.9863C279.195 37.4226 279.084 36.9245 278.861 36.4919C278.638 36.0462 278.324 35.7053 277.917 35.4694C277.524 35.2203 277.065 35.0958 276.541 35.0958C276.03 35.0958 275.571 35.2203 275.164 35.4694C274.771 35.7053 274.456 36.0396 274.22 36.4722C273.998 36.9048 273.886 37.403 273.886 37.9666C273.886 38.5303 273.998 39.035 274.22 39.4807C274.456 39.9133 274.771 40.2476 275.164 40.4836C275.571 40.7195 276.03 40.8375 276.541 40.8375ZM284.195 42.9219V28.7641H286.85V42.9219H284.195ZM292.78 43.1578C291.955 43.1578 291.273 43.0267 290.735 42.7646C290.198 42.4893 289.798 42.1288 289.536 41.6831C289.287 41.2242 289.162 40.7195 289.162 40.169C289.162 39.566 289.313 39.035 289.615 38.5762C289.929 38.1174 290.395 37.7569 291.011 37.4947C291.64 37.2325 292.427 37.1014 293.37 37.1014H295.828C295.828 36.6164 295.763 36.2166 295.632 35.902C295.501 35.5742 295.297 35.3317 295.022 35.1744C294.747 35.0171 294.38 34.9384 293.921 34.9384C293.423 34.9384 292.997 35.0499 292.643 35.2727C292.302 35.4825 292.092 35.8102 292.014 36.2559H289.438C289.503 35.548 289.733 34.9384 290.126 34.4272C290.532 33.9028 291.063 33.4964 291.719 33.208C292.387 32.9196 293.128 32.7754 293.941 32.7754C294.871 32.7754 295.678 32.9328 296.359 33.2474C297.041 33.562 297.565 34.0143 297.932 34.6042C298.299 35.1941 298.483 35.9216 298.483 36.7868V42.9219H296.241L295.946 41.4078C295.802 41.67 295.632 41.9059 295.435 42.1157C295.238 42.3254 295.009 42.5089 294.747 42.6662C294.485 42.8236 294.19 42.9415 293.862 43.0202C293.534 43.112 293.174 43.1578 292.78 43.1578ZM293.41 41.1128C293.751 41.1128 294.052 41.0538 294.314 40.9358C294.59 40.8048 294.825 40.6343 295.022 40.4246C295.219 40.2017 295.37 39.9527 295.474 39.6774C295.592 39.389 295.671 39.0809 295.71 38.7532V38.7335H293.685C293.279 38.7335 292.944 38.786 292.682 38.8908C292.433 38.9826 292.25 39.1202 292.132 39.3038C292.014 39.4873 291.955 39.697 291.955 39.933C291.955 40.1952 292.014 40.4115 292.132 40.5819C292.25 40.7523 292.42 40.8834 292.643 40.9752C292.866 41.0669 293.121 41.1128 293.41 41.1128ZM301.872 47.2479L304.271 41.8207H303.681L299.709 33.0114H302.6L305.431 39.4021L307.988 33.0114H310.799L304.684 47.2479H301.872Z" fill="white" style="fill:white;fill-opacity:1;"/>
</svg>
