<svg width="1727" height="306" viewBox="0 0 1727 306" fill="none" xmlns="http://www.w3.org/2000/svg">
<path d="M68.625 287.505C68.625 289.021 67.396 290.25 65.88 290.25H2.745C1.22898 290.25 0 289.021 0 287.505V224.37C0 222.854 1.22898 221.625 2.745 221.625H68.625V287.505Z" fill="white" style="fill:white;fill-opacity:1;"/>
<path d="M137.25 150.255C137.25 151.771 138.479 153 139.995 153H205.875V218.88C205.875 220.396 204.646 221.625 203.13 221.625H68.625V87.12C68.625 85.604 69.854 84.375 71.37 84.375H137.25V150.255Z" fill="white" style="fill:white;fill-opacity:1;"/>
<path d="M274.5 150.255C274.5 151.771 273.271 153 271.755 153H205.875V84.375H271.755C273.271 84.375 274.5 85.604 274.5 87.12V150.255Z" fill="white" style="fill:white;fill-opacity:1;"/>
<path d="M205.875 84.375H137.25V18.495C137.25 16.979 138.479 15.75 139.995 15.75H203.13C204.646 15.75 205.875 16.979 205.875 18.495V84.375Z" fill="white" style="fill:white;fill-opacity:1;"/>
<path d="M357.242 239V67.4467H421.452C435.339 67.4467 446.858 69.8158 456.007 74.5539C465.157 79.2921 471.937 85.664 476.349 93.6699C480.76 101.676 482.966 110.825 482.966 121.118C482.966 130.595 480.842 139.336 476.594 147.342C472.346 155.347 465.647 161.883 456.497 166.948C447.348 171.849 435.666 174.3 421.452 174.3H390.327V239H357.242ZM390.327 147.587H419.491C430.111 147.587 437.708 145.218 442.283 140.479C447.021 135.578 449.39 129.124 449.39 121.118C449.39 112.622 447.021 106.087 442.283 101.512C437.708 96.7742 430.111 94.4051 419.491 94.4051H390.327V147.587ZM507.782 239V115.482H540.867V239H507.782ZM524.447 98.5714C518.565 98.5714 513.663 96.8559 509.742 93.4248C505.984 89.8303 504.105 85.3373 504.105 79.9456C504.105 74.5539 505.984 70.1426 509.742 66.7115C513.663 63.117 518.565 61.3198 524.447 61.3198C530.492 61.3198 535.393 63.117 539.151 66.7115C543.073 70.1426 545.033 74.5539 545.033 79.9456C545.033 85.3373 543.073 89.8303 539.151 93.4248C535.393 96.8559 530.492 98.5714 524.447 98.5714ZM562.78 239L607.139 177.241L562.78 115.482H598.561L628.215 157.88L657.87 115.482H693.406L649.047 177.241L693.406 239H657.87L628.215 196.357L598.561 239H562.78ZM787.341 241.941C780.969 241.941 775.25 241.124 770.185 239.49C765.284 237.856 760.872 235.651 756.951 232.873C753.193 229.932 750.007 226.665 747.393 223.07L743.717 239H714.308V62.5452H747.393V132.637C751.314 126.919 756.461 122.18 762.833 118.423C769.368 114.501 777.456 112.541 787.096 112.541C798.532 112.541 808.662 115.4 817.485 121.118C826.471 126.673 833.497 134.352 838.562 144.156C843.79 153.795 846.404 164.905 846.404 177.486C846.404 189.74 843.79 200.768 838.562 210.571C833.497 220.374 826.553 228.053 817.73 233.608C808.907 239.163 798.778 241.941 787.341 241.941ZM779.498 213.022C786.034 213.022 791.752 211.551 796.654 208.611C801.718 205.506 805.64 201.34 808.417 196.112C811.195 190.72 812.584 184.511 812.584 177.486C812.584 170.46 811.195 164.252 808.417 158.86C805.64 153.305 801.718 149.057 796.654 146.116C791.752 143.012 786.034 141.46 779.498 141.46C773.126 141.46 767.408 143.012 762.343 146.116C757.441 149.057 753.52 153.223 750.579 158.615C747.802 164.007 746.413 170.215 746.413 177.241C746.413 184.266 747.802 190.557 750.579 196.112C753.52 201.503 757.441 205.67 762.343 208.611C767.408 211.551 773.126 213.022 779.498 213.022ZM879.336 292.917L909.235 225.276H901.883L852.378 115.482H888.404L923.695 195.131L955.555 115.482H990.601L914.382 292.917H879.336Z" fill="white" style="fill:white;fill-opacity:1;"/>
<line x1="1093.45" y1="9.83509e-08" x2="1093.45" y2="306" stroke="white" stroke-opacity="0.5" style="stroke:white;stroke-opacity:0.5;" stroke-width="4.5"/>
<path d="M1189.45 102.943V62.998H1194.41L1194.97 67.3014C1195.55 66.4554 1196.29 65.6646 1197.17 64.929C1198.05 64.1566 1199.1 63.5313 1200.32 63.0532C1201.57 62.575 1203.02 62.3359 1204.68 62.3359C1207.32 62.3359 1209.64 62.9796 1211.63 64.2669C1213.65 65.5543 1215.21 67.3014 1216.32 69.5083C1217.46 71.6784 1218.03 74.1611 1218.03 76.9565C1218.03 79.7519 1217.46 82.253 1216.32 84.4599C1215.18 86.63 1213.59 88.3403 1211.57 89.5909C1209.59 90.8415 1207.27 91.4668 1204.62 91.4668C1202.45 91.4668 1200.54 91.0438 1198.88 90.1978C1197.23 89.315 1195.92 88.1013 1194.97 86.5564V102.943H1189.45ZM1203.74 86.6668C1205.43 86.6668 1206.92 86.2622 1208.21 85.453C1209.53 84.6438 1210.56 83.5036 1211.3 82.0323C1212.07 80.5611 1212.45 78.8507 1212.45 76.9013C1212.45 74.9519 1212.07 73.26 1211.3 71.8255C1210.56 70.3543 1209.53 69.214 1208.21 68.4048C1206.92 67.5589 1205.43 67.1359 1203.74 67.1359C1202.01 67.1359 1200.48 67.5589 1199.16 68.4048C1197.87 69.214 1196.86 70.3543 1196.12 71.8255C1195.39 73.26 1195.02 74.9519 1195.02 76.9013C1195.02 78.8507 1195.39 80.5611 1196.12 82.0323C1196.86 83.5036 1197.87 84.6438 1199.16 85.453C1200.48 86.2622 1202.01 86.6668 1203.74 86.6668ZM1236.06 91.4668C1233.44 91.4668 1231.09 90.8599 1228.99 89.6461C1226.93 88.4323 1225.3 86.7403 1224.08 84.5702C1222.91 82.3634 1222.32 79.8255 1222.32 76.9565C1222.32 74.014 1222.92 71.4577 1224.14 69.2876C1225.35 67.0807 1227.01 65.3704 1229.1 64.1566C1231.2 62.9428 1233.55 62.3359 1236.17 62.3359C1238.81 62.3359 1241.17 62.9428 1243.23 64.1566C1245.29 65.3704 1246.91 67.0623 1248.08 69.2324C1249.3 71.4025 1249.9 73.9588 1249.9 76.9013C1249.9 79.8438 1249.3 82.4001 1248.08 84.5702C1246.91 86.7403 1245.27 88.4323 1243.17 89.6461C1241.08 90.8599 1238.7 91.4668 1236.06 91.4668ZM1236.06 86.722C1237.56 86.722 1238.92 86.3541 1240.14 85.6185C1241.39 84.8829 1242.38 83.7978 1243.12 82.3634C1243.89 80.8921 1244.28 79.0714 1244.28 76.9013C1244.28 74.7312 1243.91 72.929 1243.17 71.4945C1242.44 70.0232 1241.44 68.9198 1240.19 68.1842C1238.98 67.4485 1237.64 67.0807 1236.17 67.0807C1234.69 67.0807 1233.33 67.4485 1232.08 68.1842C1230.83 68.9198 1229.82 70.0232 1229.05 71.4945C1228.31 72.929 1227.95 74.7312 1227.95 76.9013C1227.95 79.0714 1228.31 80.8921 1229.05 82.3634C1229.82 83.7978 1230.81 84.8829 1232.03 85.6185C1233.28 86.3541 1234.62 86.722 1236.06 86.722ZM1259.95 90.8047L1251.78 62.998H1257.24L1263.31 86.1702L1262.27 86.1151L1269 62.998H1275.18L1281.91 86.1151L1280.86 86.1702L1286.87 62.998H1292.44L1284.28 90.8047H1278.6L1271.53 66.6945H1272.64L1265.58 90.8047H1259.95ZM1307.93 91.4668C1305.28 91.4668 1302.93 90.8599 1300.87 89.6461C1298.81 88.4323 1297.19 86.7403 1296.01 84.5702C1294.87 82.4001 1294.3 79.8806 1294.3 77.0117C1294.3 74.0692 1294.87 71.5129 1296.01 69.3428C1297.19 67.1359 1298.81 65.4256 1300.87 64.2118C1302.93 62.9612 1305.32 62.3359 1308.04 62.3359C1310.76 62.3359 1313.1 62.9428 1315.05 64.1566C1317 65.3704 1318.5 66.9888 1319.57 69.0117C1320.64 70.9979 1321.17 73.2048 1321.17 75.6324C1321.17 76.0002 1321.15 76.4048 1321.12 76.8462C1321.12 77.2508 1321.1 77.7105 1321.06 78.2255H1298.33V74.3083H1315.65C1315.54 71.991 1314.77 70.1887 1313.34 68.9014C1311.9 67.5773 1310.12 66.9152 1307.98 66.9152C1306.48 66.9152 1305.1 67.2646 1303.85 67.9635C1302.6 68.6255 1301.58 69.6186 1300.81 70.9428C1300.08 72.2301 1299.71 73.8669 1299.71 75.8531V77.3979C1299.71 79.4576 1300.08 81.2048 1300.81 82.6392C1301.58 84.0369 1302.6 85.1036 1303.85 85.8392C1305.1 86.5381 1306.46 86.8875 1307.93 86.8875C1309.69 86.8875 1311.15 86.5013 1312.29 85.7289C1313.43 84.9565 1314.27 83.9082 1314.83 82.5841H1320.34C1319.87 84.276 1319.06 85.8024 1317.92 87.1633C1316.78 88.4875 1315.36 89.5357 1313.67 90.3081C1312.01 91.0805 1310.1 91.4668 1307.93 91.4668ZM1326.2 90.8047V62.998H1331.16L1331.66 68.2393C1332.28 66.9888 1333.09 65.9405 1334.09 65.0945C1335.08 64.2118 1336.24 63.5313 1337.56 63.0532C1338.92 62.575 1340.47 62.3359 1342.2 62.3359V68.1842H1340.21C1339.07 68.1842 1337.99 68.3313 1336.96 68.6255C1335.93 68.883 1335.01 69.3428 1334.2 70.0048C1333.42 70.6669 1332.82 71.568 1332.38 72.7083C1331.93 73.8485 1331.71 75.2646 1331.71 76.9565V90.8047H1326.2ZM1357.93 91.4668C1355.28 91.4668 1352.93 90.8599 1350.87 89.6461C1348.81 88.4323 1347.19 86.7403 1346.01 84.5702C1344.87 82.4001 1344.3 79.8806 1344.3 77.0117C1344.3 74.0692 1344.87 71.5129 1346.01 69.3428C1347.19 67.1359 1348.81 65.4256 1350.87 64.2118C1352.93 62.9612 1355.32 62.3359 1358.04 62.3359C1360.76 62.3359 1363.1 62.9428 1365.05 64.1566C1367 65.3704 1368.51 66.9888 1369.57 69.0117C1370.64 70.9979 1371.17 73.2048 1371.17 75.6324C1371.17 76.0002 1371.15 76.4048 1371.12 76.8462C1371.12 77.2508 1371.1 77.7105 1371.06 78.2255H1348.33V74.3083H1365.66C1365.54 71.991 1364.77 70.1887 1363.34 68.9014C1361.9 67.5773 1360.12 66.9152 1357.99 66.9152C1356.48 66.9152 1355.1 67.2646 1353.85 67.9635C1352.6 68.6255 1351.59 69.6186 1350.81 70.9428C1350.08 72.2301 1349.71 73.8669 1349.71 75.8531V77.3979C1349.71 79.4576 1350.08 81.2048 1350.81 82.6392C1351.59 84.0369 1352.6 85.1036 1353.85 85.8392C1355.1 86.5381 1356.46 86.8875 1357.93 86.8875C1359.7 86.8875 1361.15 86.5013 1362.29 85.7289C1363.43 84.9565 1364.28 83.9082 1364.83 82.5841H1370.34C1369.87 84.276 1369.06 85.8024 1367.92 87.1633C1366.78 88.4875 1365.36 89.5357 1363.67 90.3081C1362.01 91.0805 1360.1 91.4668 1357.93 91.4668ZM1388.56 91.4668C1385.91 91.4668 1383.57 90.8415 1381.55 89.5909C1379.53 88.3036 1377.95 86.5748 1376.81 84.4047C1375.7 82.1979 1375.15 79.6967 1375.15 76.9013C1375.15 74.0692 1375.7 71.568 1376.81 69.3979C1377.95 67.2278 1379.53 65.5175 1381.55 64.2669C1383.61 62.9796 1385.96 62.3359 1388.61 62.3359C1390.78 62.3359 1392.7 62.7773 1394.35 63.6601C1396.01 64.506 1397.29 65.7198 1398.21 67.3014V51.0808H1403.73V90.8047H1398.76L1398.21 86.5013C1397.66 87.3472 1396.94 88.1564 1396.06 88.9288C1395.18 89.6645 1394.11 90.2714 1392.86 90.7495C1391.61 91.2277 1390.18 91.4668 1388.56 91.4668ZM1389.44 86.6668C1391.17 86.6668 1392.7 86.2622 1394.02 85.453C1395.34 84.6438 1396.35 83.5036 1397.05 82.0323C1397.79 80.5611 1398.16 78.8507 1398.16 76.9013C1398.16 74.9519 1397.79 73.26 1397.05 71.8255C1396.35 70.3543 1395.34 69.214 1394.02 68.4048C1392.7 67.5589 1391.17 67.1359 1389.44 67.1359C1387.78 67.1359 1386.3 67.5589 1384.97 68.4048C1383.65 69.214 1382.62 70.3543 1381.88 71.8255C1381.15 73.26 1380.78 74.9519 1380.78 76.9013C1380.78 78.8507 1381.15 80.5611 1381.88 82.0323C1382.62 83.5036 1383.65 84.6438 1384.97 85.453C1386.3 86.2622 1387.78 86.6668 1389.44 86.6668ZM1438.36 91.4668C1436.85 91.4668 1435.47 91.2461 1434.22 90.8047C1433 90.4001 1431.94 89.83 1431.02 89.0944C1430.1 88.3587 1429.33 87.5128 1428.7 86.5564L1428.15 90.8047H1423.18V51.0808H1428.7V67.3566C1429.58 65.9589 1430.82 64.7819 1432.4 63.8256C1434.02 62.8325 1436 62.3359 1438.36 62.3359C1441 62.3359 1443.34 62.9796 1445.36 64.2669C1447.39 65.5175 1448.95 67.2462 1450.05 69.4531C1451.19 71.6232 1451.76 74.1243 1451.76 76.9565C1451.76 79.7151 1451.19 82.1979 1450.05 84.4047C1448.95 86.6116 1447.39 88.3403 1445.36 89.5909C1443.34 90.8415 1441 91.4668 1438.36 91.4668ZM1437.47 86.6668C1439.16 86.6668 1440.65 86.2622 1441.94 85.453C1443.27 84.6438 1444.3 83.5036 1445.03 82.0323C1445.8 80.5611 1446.19 78.8507 1446.19 76.9013C1446.19 74.9519 1445.8 73.26 1445.03 71.8255C1444.3 70.3543 1443.27 69.214 1441.94 68.4048C1440.65 67.5589 1439.16 67.1359 1437.47 67.1359C1435.74 67.1359 1434.22 67.5589 1432.89 68.4048C1431.61 69.214 1430.59 70.3543 1429.86 71.8255C1429.12 73.26 1428.76 74.9519 1428.76 76.9013C1428.76 78.8507 1429.12 80.5611 1429.86 82.0323C1430.59 83.5036 1431.61 84.6438 1432.89 85.453C1434.22 86.2622 1435.74 86.6668 1437.47 86.6668ZM1457.98 102.943L1464.77 87.7151H1463.17L1452.19 62.998H1458.15L1466.87 83.1909L1475.64 62.998H1481.43L1463.78 102.943H1457.98Z" fill="white" style="fill:white;fill-opacity:1;"/>
<path d="M1246.45 248.191L1218.63 204.455H1235.54L1264.01 248.191H1246.45ZM1228.45 237.502C1221.03 237.502 1214.49 235.83 1208.82 232.485C1203.15 229.14 1198.71 224.523 1195.51 218.634C1192.31 212.671 1190.71 205.8 1190.71 198.02C1190.71 190.24 1192.31 183.405 1195.51 177.515C1198.71 171.553 1203.15 166.899 1208.82 163.554C1214.49 160.21 1221.03 158.537 1228.45 158.537C1235.94 158.537 1242.52 160.21 1248.19 163.554C1253.86 166.899 1258.26 171.553 1261.39 177.515C1264.59 183.405 1266.19 190.24 1266.19 198.02C1266.19 205.8 1264.59 212.671 1261.39 218.634C1258.26 224.523 1253.86 229.14 1248.19 232.485C1242.52 235.83 1235.94 237.502 1228.45 237.502ZM1228.45 224.305C1233.1 224.305 1237.1 223.251 1240.45 221.142C1243.87 218.961 1246.52 215.907 1248.41 211.98C1250.3 208.054 1251.25 203.4 1251.25 198.02C1251.25 192.566 1250.3 187.913 1248.41 184.059C1246.52 180.133 1243.87 177.115 1240.45 175.007C1237.1 172.898 1233.1 171.844 1228.45 171.844C1223.87 171.844 1219.87 172.898 1216.45 175.007C1213.04 177.115 1210.38 180.133 1208.49 184.059C1206.6 187.913 1205.66 192.566 1205.66 198.02C1205.66 203.4 1206.6 208.054 1208.49 211.98C1210.38 215.907 1213.04 218.961 1216.45 221.142C1219.87 223.251 1223.87 224.305 1228.45 224.305ZM1298.93 237.502C1294.49 237.502 1290.68 236.593 1287.48 234.775C1284.35 232.885 1281.95 230.158 1280.28 226.595C1278.6 222.96 1277.77 218.488 1277.77 213.18V181.223H1292.49V211.653C1292.49 216.089 1293.4 219.433 1295.22 221.687C1297.11 223.941 1299.98 225.068 1303.84 225.068C1306.31 225.068 1308.49 224.523 1310.38 223.432C1312.27 222.269 1313.76 220.633 1314.85 218.524C1316.02 216.343 1316.6 213.689 1316.6 210.563V181.223H1331.21V236.193H1318.34L1317.14 227.25C1315.54 230.376 1313.18 232.885 1310.05 234.775C1306.93 236.593 1303.22 237.502 1298.93 237.502ZM1345.96 236.193V181.223H1360.68V236.193H1345.96ZM1353.38 173.698C1350.76 173.698 1348.58 172.934 1346.83 171.407C1345.16 169.808 1344.32 167.808 1344.32 165.409C1344.32 163.009 1345.16 161.046 1346.83 159.519C1348.58 157.919 1350.76 157.119 1353.38 157.119C1356.07 157.119 1358.25 157.919 1359.92 159.519C1361.66 161.046 1362.54 163.009 1362.54 165.409C1362.54 167.808 1361.66 169.808 1359.92 171.407C1358.25 172.934 1356.07 173.698 1353.38 173.698ZM1402.17 237.502C1396.65 237.502 1391.74 236.266 1387.45 233.794C1383.16 231.322 1379.81 227.941 1377.42 223.651C1375.02 219.361 1373.82 214.453 1373.82 208.927C1373.82 203.255 1375.02 198.274 1377.42 193.984C1379.81 189.622 1383.16 186.204 1387.45 183.732C1391.74 181.187 1396.65 179.915 1402.17 179.915C1409.23 179.915 1415.15 181.769 1419.95 185.477C1424.75 189.185 1427.8 194.275 1429.11 200.746H1413.52C1412.86 198.202 1411.48 196.202 1409.37 194.748C1407.34 193.294 1404.9 192.566 1402.06 192.566C1399.52 192.566 1397.23 193.221 1395.19 194.53C1393.23 195.766 1391.67 197.62 1390.5 200.092C1389.41 202.492 1388.87 205.364 1388.87 208.708C1388.87 211.253 1389.19 213.544 1389.85 215.58C1390.5 217.543 1391.41 219.252 1392.58 220.706C1393.74 222.087 1395.12 223.142 1396.72 223.869C1398.39 224.596 1400.17 224.959 1402.06 224.959C1403.96 224.959 1405.66 224.632 1407.19 223.978C1408.79 223.323 1410.14 222.415 1411.23 221.251C1412.32 220.015 1413.08 218.524 1413.52 216.779H1429.11C1427.8 223.105 1424.71 228.159 1419.84 231.94C1415.04 235.648 1409.15 237.502 1402.17 237.502ZM1477.8 236.193L1454.35 206.091L1475.4 181.223H1492.75L1465.59 212.308V200.637L1496.13 236.193H1477.8ZM1441.81 236.193V157.665H1456.54V236.193H1441.81ZM1504.87 260.188V181.223H1517.95L1519.59 188.858C1520.75 187.258 1522.13 185.804 1523.73 184.495C1525.33 183.114 1527.22 182.023 1529.41 181.223C1531.66 180.351 1534.28 179.915 1537.26 179.915C1542.42 179.915 1546.97 181.187 1550.89 183.732C1554.82 186.277 1557.91 189.731 1560.16 194.093C1562.49 198.383 1563.65 203.291 1563.65 208.817C1563.65 214.344 1562.49 219.288 1560.16 223.651C1557.84 227.941 1554.71 231.322 1550.78 233.794C1546.86 236.266 1542.39 237.502 1537.37 237.502C1533.3 237.502 1529.77 236.775 1526.79 235.321C1523.88 233.794 1521.48 231.722 1519.59 229.104V260.188H1504.87ZM1533.88 224.632C1536.79 224.632 1539.33 223.978 1541.51 222.669C1543.77 221.36 1545.51 219.506 1546.75 217.107C1547.98 214.707 1548.6 211.944 1548.6 208.817C1548.6 205.691 1547.98 202.928 1546.75 200.528C1545.51 198.056 1543.77 196.166 1541.51 194.857C1539.33 193.475 1536.79 192.785 1533.88 192.785C1531.04 192.785 1528.5 193.475 1526.24 194.857C1524.06 196.166 1522.32 198.02 1521.01 200.419C1519.77 202.819 1519.15 205.582 1519.15 208.708C1519.15 211.835 1519.77 214.634 1521.01 217.107C1522.32 219.506 1524.06 221.36 1526.24 222.669C1528.5 223.978 1531.04 224.632 1533.88 224.632ZM1576.33 236.193V157.665H1591.06V236.193H1576.33ZM1623.95 237.502C1619.37 237.502 1615.59 236.775 1612.61 235.321C1609.63 233.794 1607.41 231.794 1605.96 229.322C1604.58 226.777 1603.89 223.978 1603.89 220.924C1603.89 217.579 1604.72 214.634 1606.39 212.089C1608.14 209.545 1610.72 207.545 1614.14 206.091C1617.63 204.637 1621.99 203.909 1627.23 203.909H1640.86C1640.86 201.219 1640.5 199.001 1639.77 197.256C1639.04 195.438 1637.91 194.093 1636.39 193.221C1634.86 192.348 1632.82 191.912 1630.28 191.912C1627.52 191.912 1625.15 192.53 1623.19 193.766C1621.3 194.93 1620.14 196.747 1619.7 199.22H1605.41C1605.78 195.293 1607.05 191.912 1609.23 189.076C1611.48 186.168 1614.43 183.914 1618.06 182.314C1621.77 180.714 1625.88 179.915 1630.39 179.915C1635.55 179.915 1640.02 180.787 1643.8 182.532C1647.59 184.277 1650.49 186.786 1652.53 190.058C1654.57 193.33 1655.58 197.365 1655.58 202.164V236.193H1643.15L1641.51 227.795C1640.71 229.249 1639.77 230.558 1638.68 231.722C1637.59 232.885 1636.31 233.903 1634.86 234.775C1633.41 235.648 1631.77 236.302 1629.95 236.739C1628.13 237.248 1626.14 237.502 1623.95 237.502ZM1627.44 226.159C1629.33 226.159 1631.01 225.832 1632.46 225.178C1633.99 224.45 1635.3 223.505 1636.39 222.342C1637.48 221.106 1638.31 219.724 1638.9 218.197C1639.55 216.598 1639.99 214.889 1640.2 213.071V212.962H1628.97C1626.72 212.962 1624.86 213.253 1623.41 213.835C1622.03 214.344 1621.01 215.107 1620.35 216.125C1619.7 217.143 1619.37 218.306 1619.37 219.615C1619.37 221.069 1619.7 222.269 1620.35 223.214C1621.01 224.16 1621.95 224.887 1623.19 225.396C1624.43 225.905 1625.84 226.159 1627.44 226.159ZM1674.38 260.188L1687.69 230.086H1684.42L1662.38 181.223H1678.42L1694.12 216.67L1708.3 181.223H1723.9L1689.98 260.188H1674.38Z" fill="white" style="fill:white;fill-opacity:1;"/>
</svg>
