<svg width="2132" height="1070" viewBox="0 0 2132 1070" fill="none" xmlns="http://www.w3.org/2000/svg">
<g clip-path="url(#clip0_884_4051)">
<path d="M79.5982 837.185C88.2932 902.841 94.5082 959.259 115.094 1020.77H1960.31C2024.02 976.576 2066.51 896.544 2063.78 817.939C2061.3 746.67 2042.21 682.736 1984.49 640.884C1921.59 595.29 1830 615.88 1758.9 624.517C1601.92 643.615 1439.67 647.228 1340.02 502.29C1311.99 461.524 1302.53 423.419 1248.91 417.684C1191.91 411.579 1133.5 423.786 1076.41 423.797C1015 423.809 965.51 422.098 922.768 369.465C870.893 305.59 834.307 238.86 767.924 187.926C674.576 116.309 585.704 110.383 473.528 110.391C379.098 110.403 285 110.391 201.973 166.375C118.946 222.359 40.5592 405.161 46.2072 549.829C49.9842 646.47 66.9412 741.649 79.5982 837.185Z" fill="#8B8B8B" style="fill:#8B8B8B;fill:color(display-p3 0.5452 0.5452 0.5452);fill-opacity:1;"/>
<path d="M1154.73 924.325C1147.45 924.317 1140.91 921.395 1136.13 916.614C1131.36 911.837 1128.43 905.305 1128.42 898.02C1128.43 890.739 1131.36 884.196 1136.13 879.418C1140.91 874.648 1147.44 871.719 1154.73 871.715H1249.23C1252.75 871.715 1255.61 868.863 1255.61 865.348C1255.61 861.824 1252.75 858.981 1249.23 858.981L1154.73 858.977C1133.16 858.981 1115.69 876.454 1115.68 898.02C1115.69 919.583 1133.16 937.063 1154.73 937.063C1158.25 937.063 1161.1 934.211 1161.1 930.696C1161.1 927.173 1158.25 924.329 1154.73 924.329V924.325Z" fill="#353535" style="fill:#353535;fill:color(display-p3 0.2078 0.2078 0.2078);fill-opacity:1;"/>
<path d="M1177.44 1002.26C1199.01 1002.26 1216.48 984.789 1216.49 963.227C1216.48 941.661 1199.01 924.18 1177.44 924.176H1156.7C1153.18 924.176 1150.34 927.028 1150.34 930.547C1150.34 934.07 1153.18 936.918 1156.7 936.918L1177.44 936.914C1184.73 936.918 1191.26 939.848 1196.04 944.621C1200.82 949.406 1203.75 955.937 1203.75 963.226C1203.75 970.503 1200.82 977.042 1196.04 981.82C1191.27 986.593 1184.73 989.519 1177.44 989.523C1173.93 989.523 1171.07 992.375 1171.07 995.894C1171.07 999.417 1173.93 1002.27 1177.44 1002.27V1002.26Z" fill="#353535" style="fill:#353535;fill:color(display-p3 0.2078 0.2078 0.2078);fill-opacity:1;"/>
<path d="M1177.44 989.523H1070.09C1066.57 989.523 1063.71 992.376 1063.71 995.895C1063.71 999.411 1066.57 1002.26 1070.09 1002.26H1177.44C1180.96 1002.26 1183.82 999.41 1183.82 995.895C1183.82 992.376 1180.96 989.523 1177.44 989.523Z" fill="#353535" style="fill:#353535;fill:color(display-p3 0.2078 0.2078 0.2078);fill-opacity:1;"/>
<path d="M1400.26 360.888L1286.18 140.134C1284.56 137.009 1280.72 135.779 1277.59 137.396C1274.46 139.013 1273.24 142.857 1274.86 145.974L1388.94 366.736C1390.56 369.857 1394.4 371.084 1397.52 369.466C1400.65 367.849 1401.88 364.009 1400.26 360.888Z" fill="#353535" style="fill:#353535;fill:color(display-p3 0.2078 0.2078 0.2078);fill-opacity:1;"/>
<path d="M1299.69 145.45C1294.73 160.677 1278.38 169.001 1263.16 164.04C1247.94 159.083 1239.63 142.727 1244.57 127.485C1249.53 112.278 1265.89 103.958 1281.11 108.919C1296.33 113.868 1304.65 130.231 1299.69 145.45Z" fill="#646464" style="fill:#646464;fill:color(display-p3 0.3922 0.3922 0.3922);fill-opacity:1;"/>
<path d="M1299.69 145.449L1293.63 143.476C1290.53 153.027 1281.66 159.089 1272.14 159.093C1269.83 159.093 1267.46 158.734 1265.12 157.98C1255.58 154.886 1249.52 146.003 1249.52 136.472C1249.52 134.144 1249.87 131.784 1250.63 129.456C1253.73 119.917 1262.61 113.851 1272.12 113.851C1274.44 113.851 1276.79 114.203 1279.12 114.964L1279.14 114.976C1288.69 118.066 1294.75 126.949 1294.75 136.46C1294.75 138.769 1294.39 141.124 1293.63 143.48L1299.69 145.449L1305.75 147.418C1306.93 143.789 1307.49 140.098 1307.49 136.461C1307.5 121.563 1298.01 107.731 1283.08 102.859L1283.1 102.867C1279.46 101.672 1275.75 101.105 1272.12 101.105C1257.22 101.105 1243.39 110.597 1238.52 125.507C1237.34 129.132 1236.77 132.831 1236.77 136.472C1236.77 151.378 1246.25 165.222 1261.18 170.097C1264.81 171.269 1268.5 171.835 1272.14 171.835C1287.05 171.835 1300.87 162.347 1305.75 147.417L1299.69 145.449Z" fill="#353535" style="fill:#353535;fill:color(display-p3 0.2078 0.2078 0.2078);fill-opacity:1;"/>
<path d="M1744.13 458.739C1744.13 562.274 1645.45 646.216 1523.75 646.216C1402.03 646.216 1303.36 562.275 1303.36 458.739C1303.36 355.192 1402.03 271.266 1523.75 271.266C1645.45 271.267 1744.13 355.192 1744.13 458.739Z" fill="#505050" style="fill:#505050;fill:color(display-p3 0.3137 0.3137 0.3137);fill-opacity:1;"/>
<path d="M1744.13 458.738H1737.76C1737.75 508.429 1714.12 553.516 1675.45 586.446C1636.79 619.344 1583.13 639.848 1523.75 639.844C1464.35 639.848 1410.7 619.344 1372.04 586.446C1333.36 553.516 1309.73 508.429 1309.73 458.738C1309.73 409.043 1333.36 363.946 1372.04 331.024C1410.7 298.126 1464.35 277.626 1523.75 277.637C1583.13 277.625 1636.79 298.125 1675.45 331.024C1714.12 363.946 1737.75 409.035 1737.76 458.738H1744.13H1750.49C1750.5 404.886 1724.79 356.243 1683.7 321.321C1642.6 286.368 1586.06 264.899 1523.75 264.895C1461.42 264.899 1404.88 286.368 1363.79 321.321C1322.69 356.243 1296.98 404.886 1296.99 458.738C1296.98 512.574 1322.69 561.23 1363.79 596.152C1404.88 631.109 1461.42 652.582 1523.75 652.582C1586.06 652.582 1642.6 631.109 1683.7 596.152C1724.79 561.23 1750.5 512.574 1750.49 458.738H1744.13Z" fill="#353535" style="fill:#353535;fill:color(display-p3 0.2078 0.2078 0.2078);fill-opacity:1;"/>
<path d="M1991.66 881.703C1991.66 900.308 1976.58 915.406 1957.97 915.406H1548.51C1529.88 915.406 1514.79 900.308 1514.79 881.703V472.242C1514.79 453.64 1529.88 438.539 1548.51 438.539H1957.97C1976.58 438.539 1991.66 453.641 1991.66 472.242V881.703Z" fill="#505050" style="fill:#505050;fill:color(display-p3 0.3137 0.3137 0.3137);fill-opacity:1;"/>
<path d="M1991.66 881.703H1985.29C1985.29 889.266 1982.25 896.062 1977.29 901.023C1972.32 905.984 1965.53 909.035 1957.97 909.035H1548.51C1540.93 909.035 1534.14 905.984 1529.17 901.023C1524.21 896.058 1521.16 889.265 1521.16 881.703V472.242C1521.16 464.683 1524.21 457.89 1529.17 452.918C1534.14 447.957 1540.93 444.91 1548.51 444.906H1957.97C1965.53 444.91 1972.32 447.957 1977.29 452.918C1982.25 457.883 1985.29 464.684 1985.29 472.242V881.703H1991.66H1998.03V472.242C1998.03 450.117 1980.1 432.172 1957.97 432.168H1548.51C1526.36 432.172 1508.43 450.117 1508.42 472.242V881.703C1508.43 903.824 1526.36 921.769 1548.51 921.781H1957.97C1980.1 921.769 1998.03 903.824 1998.03 881.703H1991.66Z" fill="#353535" style="fill:#353535;fill:color(display-p3 0.2078 0.2078 0.2078);fill-opacity:1;"/>
<path d="M1845.25 993.852C1845.25 1011.38 1831.04 1025.61 1813.51 1025.61H1427.82C1410.28 1025.61 1396.07 1011.38 1396.07 993.852V608.156C1396.07 590.621 1410.28 576.418 1427.82 576.418H1813.51C1831.04 576.418 1845.25 590.621 1845.25 608.156V993.852Z" fill="#505050" style="fill:#505050;fill:color(display-p3 0.3137 0.3137 0.3137);fill-opacity:1;"/>
<path d="M1845.25 993.852H1838.88C1838.88 1000.87 1836.06 1007.18 1831.45 1011.8C1826.84 1016.41 1820.54 1019.23 1813.51 1019.23H1427.82C1420.79 1019.23 1414.48 1016.41 1409.87 1011.8C1405.27 1007.18 1402.44 1000.87 1402.43 993.852V608.156C1402.44 601.125 1405.27 594.82 1409.87 590.215C1414.48 585.617 1420.79 582.789 1427.82 582.781H1813.51C1820.54 582.789 1826.84 585.617 1831.45 590.215C1836.06 594.821 1838.88 601.125 1838.88 608.156V993.851H1845.25H1851.63V608.156C1851.62 587.101 1834.56 570.051 1813.51 570.043H1427.82C1406.76 570.051 1389.7 587.102 1389.7 608.156V993.851C1389.7 1014.9 1406.76 1031.97 1427.82 1031.97H1813.51C1834.57 1031.97 1851.62 1014.9 1851.63 993.851H1845.25V993.852Z" fill="#353535" style="fill:#353535;fill:color(display-p3 0.2078 0.2078 0.2078);fill-opacity:1;"/>
<path d="M1672.58 993.852C1672.58 1011.38 1658.36 1025.61 1640.82 1025.61H1255.13C1237.6 1025.61 1223.38 1011.38 1223.38 993.852V608.156C1223.38 590.621 1237.6 576.418 1255.13 576.418H1640.82C1658.36 576.418 1672.58 590.621 1672.58 608.156V993.852Z" fill="#6B6B6B" style="fill:#6B6B6B;fill:color(display-p3 0.4196 0.4196 0.4196);fill-opacity:1;"/>
<path d="M1672.58 993.852H1666.21C1666.21 1000.87 1663.38 1007.18 1658.77 1011.8C1654.16 1016.41 1647.85 1019.23 1640.82 1019.23H1255.13C1248.11 1019.23 1241.8 1016.41 1237.19 1011.8C1232.58 1007.18 1229.75 1000.87 1229.75 993.852V608.156C1229.75 601.125 1232.58 594.828 1237.18 590.215C1241.8 585.617 1248.11 582.789 1255.13 582.781H1640.82C1647.85 582.789 1654.16 585.617 1658.78 590.215C1663.38 594.828 1666.21 601.125 1666.21 608.156V993.851H1672.58H1678.95V608.156C1678.95 587.101 1661.88 570.051 1640.82 570.043H1255.13C1234.08 570.051 1217.02 587.094 1217.02 608.156V993.851C1217.02 1014.9 1234.08 1031.97 1255.13 1031.97H1640.82C1661.89 1031.97 1678.95 1014.9 1678.95 993.851H1672.58V993.852Z" fill="#353535" style="fill:#353535;fill:color(display-p3 0.2078 0.2078 0.2078);fill-opacity:1;"/>
<path d="M1924.43 917.246C1924.43 939.086 1906.72 956.797 1884.87 956.797H1404.33C1382.48 956.797 1364.76 939.086 1364.76 917.246V436.703C1364.76 414.855 1382.48 397.137 1404.33 397.137H1884.87C1906.72 397.137 1924.43 414.856 1924.43 436.703V917.246Z" fill="#6B6B6B" style="fill:#6B6B6B;fill:color(display-p3 0.4196 0.4196 0.4196);fill-opacity:1;"/>
<path d="M1924.43 917.247H1918.05C1918.05 926.423 1914.36 934.685 1908.34 940.708C1902.31 946.724 1894.06 950.423 1884.87 950.427H1404.33C1395.14 950.423 1386.88 946.724 1380.85 940.704C1374.84 934.684 1371.13 926.423 1371.13 917.247V436.704C1371.13 427.52 1374.84 419.259 1380.85 413.227C1386.88 407.207 1395.14 403.512 1404.33 403.512H1884.87C1894.06 403.512 1902.31 407.207 1908.34 413.227C1914.36 419.258 1918.05 427.52 1918.05 436.704V917.247H1924.43H1930.8V436.704C1930.8 411.341 1910.25 390.774 1884.87 390.766H1404.33C1378.96 390.774 1358.39 411.332 1358.39 436.704V917.247C1358.39 942.61 1378.96 963.165 1404.33 963.165H1884.87C1910.25 963.165 1930.8 942.602 1930.8 917.247H1924.43Z" fill="#353535" style="fill:#353535;fill:color(display-p3 0.2078 0.2078 0.2078);fill-opacity:1;"/>
<path d="M1802.03 917.246C1802.03 939.086 1784.32 956.797 1762.47 956.797H1190.18C1168.34 956.797 1150.62 939.086 1150.62 917.246V436.703C1150.62 414.855 1168.34 397.137 1190.18 397.137H1762.47C1784.32 397.137 1802.03 414.856 1802.03 436.703L1802.03 917.246Z" fill="#646464" style="fill:#646464;fill:color(display-p3 0.3922 0.3922 0.3922);fill-opacity:1;"/>
<path d="M1802.03 917.247H1795.66C1795.66 926.423 1791.96 934.685 1785.94 940.704C1779.92 946.724 1771.66 950.423 1762.47 950.427H1190.18C1181 950.423 1172.74 946.724 1166.71 940.704C1160.7 934.684 1157 926.423 1156.99 917.247V436.704C1157 427.52 1160.7 419.259 1166.71 413.227C1172.75 407.207 1181 403.512 1190.18 403.512H1762.47C1771.66 403.512 1779.92 407.207 1785.94 413.227C1791.96 419.258 1795.66 427.52 1795.66 436.704L1795.66 917.247H1802.03H1808.4V436.704C1808.4 411.333 1787.84 390.774 1762.47 390.766H1190.18C1164.82 390.774 1144.27 411.332 1144.26 436.704V917.247C1144.27 942.61 1164.82 963.165 1190.18 963.165H1762.47C1787.84 963.165 1808.4 942.602 1808.4 917.247H1802.03Z" fill="#353535" style="fill:#353535;fill:color(display-p3 0.2078 0.2078 0.2078);fill-opacity:1;"/>
<path d="M1649.67 870.134C1646.11 887.595 1628.52 905.173 1611.07 908.728C1482.29 934.166 1353.52 934.166 1224.73 908.728C1207.29 905.173 1189.71 887.595 1186.14 870.134C1160.7 741.353 1160.7 612.591 1186.14 483.806C1189.7 466.361 1207.29 448.763 1224.73 445.22C1353.52 419.771 1482.29 419.771 1611.07 445.22C1628.52 448.763 1646.11 466.361 1649.67 483.806C1675.1 612.591 1675.1 741.353 1649.67 870.134Z" fill="#272727" style="fill:#272727;fill:color(display-p3 0.1529 0.1529 0.1529);fill-opacity:1;"/>
<path d="M1615.93 845.024C1612.72 860.212 1596.86 875.508 1581.11 878.602C1464.96 900.735 1348.79 900.735 1232.63 878.602C1216.9 875.508 1201.03 860.211 1197.82 845.024C1174.88 733.001 1174.88 620.954 1197.82 508.919C1201.02 493.735 1216.89 478.435 1232.63 475.341C1348.79 453.212 1464.96 453.212 1581.11 475.341C1596.86 478.435 1612.72 493.736 1615.93 508.919C1638.88 620.954 1638.88 733.001 1615.93 845.024Z" fill="#414141" style="fill:#414141;fill:color(display-p3 0.2549 0.2549 0.2549);fill-opacity:1;"/>
<path d="M1245.79 505.952C1231.23 521.28 1220.62 544.276 1213.36 571.222C1206.14 598.171 1202.4 629.132 1202.39 660.398C1202.4 692.269 1206.29 724.437 1214.53 752.964C1222.8 781.468 1235.38 806.433 1253.35 823.624C1255.9 826.05 1259.93 825.96 1262.36 823.409C1264.79 820.866 1264.69 816.831 1262.15 814.409C1246.5 799.526 1234.59 776.53 1226.77 749.425C1218.93 722.331 1215.13 691.222 1215.13 660.398C1215.13 630.164 1218.78 600.179 1225.66 574.523C1232.52 548.855 1242.72 527.574 1255.01 514.75C1257.44 512.199 1257.34 508.168 1254.8 505.738C1252.25 503.312 1248.22 503.41 1245.8 505.953L1245.79 505.952Z" fill="#A8A8A8" style="fill:#A8A8A8;fill:color(display-p3 0.6606 0.6606 0.6606);fill-opacity:1;"/>
<path d="M1772.63 900.906C1772.63 918.765 1683.45 918.765 1683.45 900.906V472.141C1683.45 454.266 1772.63 454.266 1772.63 472.141V900.906Z" fill="#505050" style="fill:#505050;fill:color(display-p3 0.3137 0.3137 0.3137);fill-opacity:1;"/>
<path d="M1772.63 900.906H1766.26H1767.35L1766.31 900.57L1766.26 900.906H1767.35L1766.31 900.57L1766.93 900.769L1766.34 900.488L1766.31 900.57L1766.93 900.769L1766.34 900.488H1766.34C1766.31 900.633 1765.24 901.715 1763.07 902.699C1759.84 904.223 1754.54 905.64 1748.37 906.539C1742.19 907.453 1735.11 907.934 1728.04 907.926C1717.33 907.938 1706.56 906.817 1699.03 904.793C1695.28 903.813 1692.35 902.551 1690.88 901.516C1690.15 901.008 1689.8 900.598 1689.75 900.5L1689.73 900.48L1688.87 900.906H1689.82L1689.73 900.48L1688.87 900.906H1689.82V472.141H1688.76L1689.77 472.465L1689.82 472.141H1688.76L1689.77 472.465L1689.15 472.274L1689.74 472.551L1689.77 472.465L1689.15 472.274L1689.74 472.551V472.547C1689.77 472.402 1690.84 471.317 1693.02 470.336C1696.24 468.809 1701.54 467.391 1707.71 466.492C1713.89 465.57 1720.96 465.101 1728.04 465.101C1738.75 465.093 1749.52 466.214 1757.05 468.238C1760.8 469.222 1763.73 470.492 1765.19 471.519C1765.93 472.027 1766.27 472.437 1766.33 472.535L1766.34 472.554L1767.18 472.14H1766.26L1766.34 472.554L1767.18 472.14H1766.26V900.906H1772.63H1779V472.141C1779.01 469.68 1778.16 467.293 1776.92 465.457C1774.7 462.227 1771.66 460.313 1768.3 458.727C1763.23 456.399 1757.04 454.907 1750.12 453.871C1743.22 452.859 1735.63 452.363 1728.04 452.359C1716.45 452.371 1704.93 453.484 1695.74 455.933C1691.13 457.179 1687.09 458.703 1683.68 461.023C1681.98 462.195 1680.41 463.601 1679.16 465.457C1677.91 467.293 1677.07 469.68 1677.08 472.141V900.907C1677.07 903.364 1677.91 905.747 1679.16 907.587C1681.38 910.821 1684.41 912.724 1687.78 914.317C1692.85 916.637 1699.04 918.13 1705.96 919.157C1712.85 920.177 1720.44 920.665 1728.04 920.665C1739.62 920.653 1751.14 919.544 1760.34 917.102C1764.94 915.856 1768.99 914.332 1772.39 912.016C1774.1 910.844 1775.67 909.442 1776.92 907.586C1778.16 905.746 1779.01 903.363 1779 900.906H1772.63Z" fill="#353535" style="fill:#353535;fill:color(display-p3 0.2078 0.2078 0.2078);fill-opacity:1;"/>
<path d="M1712.87 518.449H1744.13C1747.64 518.449 1750.49 515.59 1750.49 512.074C1750.49 508.558 1747.64 505.703 1744.13 505.703H1712.87C1709.35 505.703 1706.5 508.558 1706.5 512.074C1706.5 515.59 1709.35 518.449 1712.87 518.449Z" fill="#353535" style="fill:#353535;fill:color(display-p3 0.2078 0.2078 0.2078);fill-opacity:1;"/>
<path d="M1712.87 542.355H1744.13C1747.64 542.355 1750.49 539.503 1750.49 535.988C1750.49 532.465 1747.64 529.617 1744.13 529.617H1712.87C1709.35 529.617 1706.5 532.465 1706.5 535.988C1706.5 539.503 1709.35 542.355 1712.87 542.355Z" fill="#353535" style="fill:#353535;fill:color(display-p3 0.2078 0.2078 0.2078);fill-opacity:1;"/>
<path d="M1712.87 566.261H1744.13C1747.64 566.261 1750.49 563.409 1750.49 559.894C1750.49 556.371 1747.64 553.523 1744.13 553.523H1712.87C1709.35 553.523 1706.5 556.371 1706.5 559.894C1706.5 563.409 1709.35 566.261 1712.87 566.261Z" fill="#353535" style="fill:#353535;fill:color(display-p3 0.2078 0.2078 0.2078);fill-opacity:1;"/>
<path d="M1712.87 590.168H1744.13C1747.64 590.168 1750.49 587.312 1750.49 583.797C1750.49 580.281 1747.64 577.422 1744.13 577.422H1712.87C1709.35 577.422 1706.5 580.281 1706.5 583.797C1706.5 587.313 1709.35 590.168 1712.87 590.168Z" fill="#353535" style="fill:#353535;fill:color(display-p3 0.2078 0.2078 0.2078);fill-opacity:1;"/>
<path d="M1712.87 614.062H1744.13C1747.64 614.062 1750.49 611.206 1750.49 607.691C1750.49 604.175 1747.64 601.32 1744.13 601.32H1712.87C1709.35 601.32 1706.5 604.175 1706.5 607.691C1706.5 611.206 1709.35 614.062 1712.87 614.062Z" fill="#353535" style="fill:#353535;fill:color(display-p3 0.2078 0.2078 0.2078);fill-opacity:1;"/>
<path d="M1712.87 637.957H1744.13C1747.64 637.957 1750.49 635.109 1750.49 631.594C1750.49 628.071 1747.64 625.219 1744.13 625.219H1712.87C1709.35 625.219 1706.5 628.071 1706.5 631.594C1706.5 635.109 1709.35 637.957 1712.87 637.957Z" fill="#353535" style="fill:#353535;fill:color(display-p3 0.2078 0.2078 0.2078);fill-opacity:1;"/>
<path d="M1712.87 661.867H1744.13C1747.64 661.867 1750.49 659.015 1750.49 655.5C1750.49 651.977 1747.64 649.129 1744.13 649.129H1712.87C1709.35 649.129 1706.5 651.977 1706.5 655.5C1706.5 659.016 1709.35 661.867 1712.87 661.867Z" fill="#353535" style="fill:#353535;fill:color(display-p3 0.2078 0.2078 0.2078);fill-opacity:1;"/>
<path d="M1743.66 752.02H1737.3C1737.29 757.629 1732.74 762.18 1727.12 762.188C1721.5 762.18 1716.95 757.629 1716.94 752.02C1716.95 746.399 1721.5 741.852 1727.12 741.848C1732.74 741.852 1737.29 746.395 1737.3 752.02H1743.66H1750.04C1750.03 739.356 1739.77 729.102 1727.12 729.102C1714.47 729.102 1704.2 739.356 1704.2 752.02C1704.2 764.672 1714.46 774.926 1727.12 774.926C1739.78 774.926 1750.03 764.672 1750.04 752.02H1743.66Z" fill="#353535" style="fill:#353535;fill:color(display-p3 0.2078 0.2078 0.2078);fill-opacity:1;"/>
<path d="M1743.66 816.882H1737.3C1737.29 822.511 1732.74 827.05 1727.12 827.062C1721.5 827.05 1716.95 822.503 1716.94 816.882C1716.95 811.28 1721.5 806.73 1727.12 806.718C1732.74 806.73 1737.29 811.281 1737.3 816.882H1743.66H1750.04C1750.03 804.238 1739.78 793.984 1727.12 793.98C1714.46 793.984 1704.2 804.23 1704.2 816.882C1704.2 829.542 1714.46 839.796 1727.12 839.808C1739.78 839.8 1750.03 829.542 1750.04 816.882H1743.66Z" fill="#353535" style="fill:#353535;fill:color(display-p3 0.2078 0.2078 0.2078);fill-opacity:1;"/>
<path d="M1640.5 366.734L1754.58 145.972C1756.2 142.855 1754.98 139.011 1751.85 137.394C1748.72 135.777 1744.88 137.007 1743.27 140.132L1629.18 360.886C1627.57 364.007 1628.79 367.847 1631.91 369.464C1635.04 371.082 1638.88 369.856 1640.5 366.734Z" fill="#353535" style="fill:#353535;fill:color(display-p3 0.2078 0.2078 0.2078);fill-opacity:1;"/>
<path d="M1729.74 145.45C1734.7 160.677 1751.07 169.001 1766.28 164.04C1781.5 159.083 1789.82 142.727 1784.86 127.485C1779.91 112.278 1763.54 103.958 1748.33 108.919C1733.11 113.868 1724.79 130.231 1729.74 145.45Z" fill="#646464" style="fill:#646464;fill:color(display-p3 0.3922 0.3922 0.3922);fill-opacity:1;"/>
<path d="M1729.74 145.448L1723.68 147.417C1728.56 162.347 1742.39 171.835 1757.3 171.835C1760.94 171.835 1764.62 171.269 1768.24 170.097C1783.18 165.226 1792.67 151.39 1792.66 136.476C1792.67 132.835 1792.1 129.132 1790.92 125.503C1786.05 110.597 1772.21 101.105 1757.31 101.105C1753.68 101.105 1749.98 101.671 1746.34 102.867L1746.36 102.859C1731.43 107.73 1721.94 121.566 1721.94 136.472C1721.94 140.097 1722.51 143.788 1723.68 147.417L1729.74 145.448L1735.8 143.479C1735.04 141.131 1734.68 138.78 1734.68 136.471C1734.69 126.948 1740.75 118.065 1750.3 114.975L1750.32 114.963C1752.65 114.201 1754.99 113.85 1757.31 113.85C1766.83 113.85 1775.71 119.916 1778.81 129.452C1779.57 131.796 1779.92 134.151 1779.92 136.475C1779.92 146.006 1773.86 154.877 1764.31 157.979C1761.97 158.733 1759.61 159.092 1757.3 159.092C1747.79 159.092 1738.9 153.026 1735.8 143.475L1729.74 145.448Z" fill="#353535" style="fill:#353535;fill:color(display-p3 0.2078 0.2078 0.2078);fill-opacity:1;"/>
<path d="M1506.67 323.551H1668.91C1672.43 323.551 1675.28 320.696 1675.28 317.18C1675.28 313.664 1672.43 310.809 1668.91 310.809H1506.67C1503.14 310.809 1500.3 313.665 1500.3 317.18C1500.3 320.695 1503.14 323.551 1506.67 323.551Z" fill="#353535" style="fill:#353535;fill:color(display-p3 0.2078 0.2078 0.2078);fill-opacity:1;"/>
<path d="M1506.67 370.18H1713.8C1717.32 370.18 1720.17 367.325 1720.17 363.809C1720.17 360.293 1717.32 357.438 1713.8 357.438H1506.67C1503.14 357.438 1500.3 360.294 1500.3 363.809C1500.3 367.324 1503.14 370.18 1506.67 370.18Z" fill="#353535" style="fill:#353535;fill:color(display-p3 0.2078 0.2078 0.2078);fill-opacity:1;"/>
<path d="M1838.88 473.773V877.754C1838.88 881.27 1841.74 884.129 1845.25 884.129C1848.77 884.129 1851.63 881.27 1851.63 877.754V473.773C1851.63 470.257 1848.77 467.402 1845.25 467.402C1841.74 467.402 1838.88 470.258 1838.88 473.773Z" fill="#353535" style="fill:#353535;fill:color(display-p3 0.2078 0.2078 0.2078);fill-opacity:1;"/>
<path d="M1872.6 473.773V877.754C1872.6 881.27 1875.44 884.129 1878.96 884.129C1882.48 884.129 1885.33 881.27 1885.33 877.754V473.773C1885.33 470.257 1882.48 467.402 1878.96 467.402C1875.44 467.402 1872.6 470.258 1872.6 473.773Z" fill="#353535" style="fill:#353535;fill:color(display-p3 0.2078 0.2078 0.2078);fill-opacity:1;"/>
<path d="M945.504 781.355V579.511C945.504 566.448 934.914 555.855 921.844 555.855H801.195C788.132 555.855 777.543 566.449 777.543 579.511V781.355H945.504Z" fill="#505050" style="fill:#505050;fill:color(display-p3 0.3137 0.3137 0.3137);fill-opacity:1;"/>
<path d="M945.504 781.355H951.871V579.511C951.867 562.925 938.433 549.488 921.844 549.484H801.195C784.613 549.488 771.176 562.925 771.172 579.511V781.355C771.172 783.027 771.856 784.671 773.039 785.859C774.227 787.043 775.863 787.726 777.543 787.726H945.504C947.18 787.726 948.82 787.042 950.004 785.859C951.192 784.671 951.871 783.027 951.871 781.355H945.504V774.98H783.914V579.511C783.93 569.968 791.656 562.245 801.195 562.222H921.843C931.394 562.245 939.116 569.968 939.132 579.511V781.355H945.504Z" fill="#353535" style="fill:#353535;fill:color(display-p3 0.2078 0.2078 0.2078);fill-opacity:1;"/>
<path d="M902.52 781.355V579.511C902.52 566.448 891.922 555.855 878.868 555.855H744.019C730.953 555.855 720.363 566.449 720.363 579.511V781.355H902.52Z" fill="#6B6B6B" style="fill:#6B6B6B;fill:color(display-p3 0.4196 0.4196 0.4196);fill-opacity:1;"/>
<path d="M902.52 781.355H908.887V579.511C908.883 562.925 895.446 549.488 878.867 549.484H744.019C727.429 549.488 713.996 562.925 713.992 579.511V781.355C713.992 783.027 714.672 784.671 715.859 785.859C717.043 787.043 718.683 787.726 720.363 787.726H902.519C904.195 787.726 905.835 787.042 907.023 785.859C908.207 784.671 908.887 783.027 908.887 781.355H902.52V774.98H726.73V579.511C726.746 569.968 734.472 562.245 744.019 562.222H878.867C888.402 562.245 896.133 569.968 896.148 579.511V781.355H902.52Z" fill="#353535" style="fill:#353535;fill:color(display-p3 0.2078 0.2078 0.2078);fill-opacity:1;"/>
<path d="M869.195 555.855V683.859C869.195 692.14 862.48 698.859 854.195 698.859H768.683C760.394 698.859 753.683 692.14 753.683 683.859V555.855H869.195Z" fill="#6B6B6B" style="fill:#6B6B6B;fill:color(display-p3 0.4196 0.4196 0.4196);fill-opacity:1;"/>
<path d="M869.194 555.855H862.823V683.859C862.815 688.617 858.956 692.472 854.194 692.484H768.682C763.916 692.472 760.057 688.617 760.049 683.859V562.222H869.194V555.855V549.484H753.684C752.004 549.484 750.364 550.16 749.176 551.355C747.992 552.539 747.312 554.175 747.312 555.855V683.859C747.317 695.66 756.876 705.218 768.684 705.23H854.196C866.001 705.218 875.558 695.66 875.562 683.859V555.855C875.562 554.175 874.882 552.539 873.699 551.355C872.511 550.164 870.872 549.484 869.196 549.484V555.855H869.194Z" fill="#353535" style="fill:#353535;fill:color(display-p3 0.2078 0.2078 0.2078);fill-opacity:1;"/>
<path d="M729.25 596.887V658.809C729.25 662.329 732.098 665.176 735.617 665.176C739.136 665.176 741.988 662.328 741.988 658.809V596.887C741.988 593.367 739.136 590.516 735.617 590.516C732.098 590.516 729.25 593.367 729.25 596.887Z" fill="#A8A8A8" style="fill:#A8A8A8;fill:color(display-p3 0.6606 0.6606 0.6606);fill-opacity:1;"/>
<path d="M1035.56 749.149C1032.15 739.622 1020.42 731.895 1009.37 731.895C927.891 731.895 846.414 731.895 764.937 731.895C753.886 731.895 743.671 739.622 742.121 749.149C737.113 781.219 732.109 813.278 727.105 845.344C725.55 854.871 735.457 862.598 749.222 862.598C849.671 862.598 950.124 862.598 1050.58 862.598C1064.34 862.598 1072.74 854.871 1069.33 845.344C1058.07 813.278 1046.82 781.224 1035.56 749.149Z" fill="#444444" style="fill:#444444;fill:color(display-p3 0.2667 0.2667 0.2667);fill-opacity:1;"/>
<path d="M1035.56 749.147L1041.56 746.999C1039.22 740.561 1034.5 735.382 1028.83 731.628C1023.14 727.898 1016.39 725.546 1009.37 725.523C927.891 725.523 846.414 725.523 764.937 725.523C757.921 725.543 751.339 727.937 746.124 731.867C740.933 735.801 736.944 741.402 735.835 748.121L735.827 748.164C730.819 780.234 725.815 812.293 720.811 844.359L720.819 844.308C720.655 845.304 720.573 846.304 720.573 847.292C720.565 850.616 721.514 853.831 723.139 856.558C725.588 860.675 729.405 863.749 733.873 865.808C738.365 867.871 743.584 868.96 749.221 868.972C849.67 868.972 950.123 868.972 1050.58 868.972C1057.42 868.952 1063.52 867.378 1068.31 864.128C1070.69 862.503 1072.74 860.425 1074.19 857.917C1075.65 855.417 1076.46 852.487 1076.46 849.499C1076.46 847.386 1076.06 845.249 1075.32 843.19L1075.33 843.229C1064.08 811.167 1052.83 779.112 1041.57 747.034L1041.55 746.999L1035.56 749.147L1029.55 751.256C1040.81 783.334 1052.06 815.385 1063.32 847.451L1063.33 847.487C1063.62 848.296 1063.72 848.955 1063.72 849.498C1063.71 850.275 1063.55 850.865 1063.17 851.525C1062.62 852.494 1061.43 853.666 1059.29 854.619C1057.19 855.564 1054.2 856.228 1050.58 856.224C950.126 856.224 849.673 856.224 749.224 856.224C743.923 856.236 739.568 854.802 736.908 852.935C735.572 852.009 734.658 851.001 734.107 850.068C733.556 849.123 733.322 848.271 733.314 847.291L733.392 846.369L733.4 846.326C738.404 814.26 743.408 782.193 748.416 750.127L748.408 750.162C748.846 747.357 750.74 744.338 753.81 742.025C756.853 739.716 760.908 738.248 764.939 738.259C846.416 738.259 927.892 738.259 1009.37 738.259C1013.41 738.236 1018.04 739.751 1021.83 742.267C1025.65 744.759 1028.49 748.201 1029.56 751.29L1029.55 751.255L1035.56 749.147Z" fill="#353535" style="fill:#353535;fill:color(display-p3 0.2078 0.2078 0.2078);fill-opacity:1;"/>
<path d="M917.305 749.149C915.754 739.622 905.535 731.895 894.485 731.895C813.004 731.895 750.266 731.895 668.786 731.895C657.735 731.895 646.013 739.622 642.602 749.149C631.348 781.219 620.09 813.278 608.829 845.344C605.423 854.871 613.821 862.598 627.579 862.598C728.036 862.598 809.759 862.598 910.208 862.598C923.97 862.598 933.876 854.871 932.321 845.344C927.313 813.278 922.309 781.224 917.305 749.149Z" fill="#565656" style="fill:#565656;fill:color(display-p3 0.3373 0.3373 0.3373);fill-opacity:1;"/>
<path d="M917.305 749.148L923.594 748.121C922.481 741.402 918.492 735.801 913.297 731.867C908.082 727.937 901.504 725.543 894.484 725.523C813.003 725.523 750.265 725.523 668.785 725.523C661.769 725.546 655.012 727.898 649.324 731.628C643.66 735.382 638.941 740.566 636.605 746.999L636.589 747.034C625.335 779.104 614.081 811.167 602.819 843.229L602.831 843.198C602.097 845.245 601.698 847.378 601.698 849.495C601.69 852.483 602.503 855.405 603.96 857.909C606.155 861.675 609.628 864.44 613.671 866.249C617.734 868.062 622.437 868.96 627.577 868.972C728.034 868.972 809.757 868.972 910.206 868.972C917.714 868.952 924.495 867.046 929.772 863.405C932.401 861.585 934.659 859.3 936.28 856.561C937.905 853.831 938.854 850.62 938.846 847.291C938.846 846.303 938.768 845.307 938.604 844.318L938.612 844.357C933.604 812.291 928.596 780.236 923.596 748.162L923.592 748.119L917.305 749.148L911.012 750.125C916.016 782.207 921.02 814.262 926.028 846.328L926.036 846.359L926.11 847.293C926.102 848.273 925.868 849.125 925.321 850.07C924.505 851.468 922.825 853.039 920.216 854.242C917.63 855.441 914.177 856.23 910.208 856.226C809.759 856.226 728.036 856.226 627.579 856.226C622.739 856.238 619.079 855.031 617.036 853.609C616.005 852.898 615.368 852.175 614.985 851.523C614.614 850.855 614.45 850.265 614.438 849.496C614.442 848.957 614.536 848.301 614.829 847.488L614.837 847.453C626.103 815.387 637.36 783.324 648.614 751.258L648.598 751.293C649.672 748.195 652.52 744.762 656.332 742.27C660.121 739.754 664.75 738.239 668.785 738.262C750.265 738.262 813.004 738.262 894.484 738.262C898.515 738.25 902.574 739.719 905.617 742.028C908.683 744.341 910.582 747.368 911.019 750.165L911.011 750.126L917.305 749.148Z" fill="#353535" style="fill:#353535;fill:color(display-p3 0.2078 0.2078 0.2078);fill-opacity:1;"/>
<path d="M730.656 1020.77C729.918 1023.45 727.382 1025.61 724.995 1025.61C707.389 1025.61 689.78 1025.61 672.179 1025.61C669.788 1025.61 667.582 1023.45 667.25 1020.77C666.168 1011.73 665.082 1002.72 664 993.707C663.664 991.027 665.808 988.848 668.776 988.848C690.487 988.848 712.198 988.848 733.901 988.848C736.874 988.848 738.69 991.028 737.948 993.707C735.518 1002.72 733.082 1011.73 730.656 1020.77Z" fill="#444444" style="fill:#444444;fill:color(display-p3 0.2667 0.2667 0.2667);fill-opacity:1;"/>
<path d="M730.656 1020.77L724.519 1019.07L724.464 1019.16L724.265 1019.38L724.996 1020.55V1019.24C724.433 1019.25 724.265 1019.38 724.265 1019.38L724.996 1020.55V1019.24C707.39 1019.24 689.781 1019.24 672.18 1019.24V1020.89L673.403 1019.65C673.301 1019.54 672.942 1019.25 672.18 1019.24V1020.89L673.403 1019.65L673.008 1020.05L673.571 1019.98L673.403 1019.65L673.008 1020.05L673.571 1019.98V1020C672.493 1010.98 671.407 1001.96 670.325 992.943L670.321 992.916L668.407 993.154H670.337L670.321 992.916L668.407 993.154H670.337H668.099L669.603 994.822C670.001 994.494 670.357 993.759 670.337 993.154H668.099L669.603 994.822L668.779 993.912V995.221L669.603 994.822L668.779 993.912V995.221C690.49 995.221 712.201 995.222 733.904 995.222V993.327L732.724 994.651C733.306 995.174 733.861 995.226 733.904 995.222V993.326L732.724 994.651L734.615 992.525H731.744C731.713 993.173 732.127 994.163 732.724 994.651L734.615 992.525H731.744H733.596L731.803 992.041L731.744 992.525H733.596L731.803 992.041C729.373 1001.06 726.936 1010.08 724.51 1019.11L724.522 1019.07L730.656 1020.77L736.808 1022.41C739.234 1013.39 741.671 1004.38 744.097 995.356C744.339 994.473 744.48 993.512 744.48 992.524C744.515 989.762 743.257 986.934 741.183 985.133C739.128 983.301 736.468 982.465 733.902 982.473C712.199 982.473 690.488 982.473 668.777 982.473C665.949 982.473 663.175 983.453 661.07 985.36C658.957 987.231 657.574 990.122 657.593 993.153L657.679 994.493L657.675 994.47C658.757 1003.48 659.843 1012.49 660.925 1021.52V1021.55C661.292 1024.4 662.581 1026.86 664.48 1028.74C666.367 1030.58 669.027 1031.96 672.179 1031.97C689.781 1031.97 707.39 1031.97 724.995 1031.97C728.139 1031.94 730.636 1030.68 732.581 1029.03C734.519 1027.36 736.03 1025.18 736.796 1022.46L736.808 1022.42L730.656 1020.77Z" fill="#353535" style="fill:#353535;fill:color(display-p3 0.2078 0.2078 0.2078);fill-opacity:1;"/>
<path d="M705.102 1020.77C704.77 1023.45 702.559 1025.61 700.172 1025.61C682.563 1025.61 669.008 1025.61 651.399 1025.61C649.016 1025.61 646.481 1023.45 645.743 1020.77C643.313 1011.73 640.88 1002.72 638.442 993.707C637.708 991.027 639.524 988.848 642.501 988.848C664.204 988.848 681.864 988.848 703.571 988.848C706.548 988.848 708.68 991.028 708.348 993.707C707.266 1002.72 706.184 1011.73 705.102 1020.77Z" fill="#565656" style="fill:#565656;fill:color(display-p3 0.3373 0.3373 0.3373);fill-opacity:1;"/>
<path d="M705.102 1020.77L698.782 1019.98L699.352 1020.05L698.946 1019.64L698.782 1019.98L699.352 1020.05L698.946 1019.64L700.173 1020.89V1019.23C699.407 1019.25 699.052 1019.54 698.946 1019.64L700.173 1020.89V1019.23C682.564 1019.23 669.009 1019.23 651.4 1019.23V1020.96L652.072 1019.35L651.4 1019.23V1020.96L652.072 1019.35L651.869 1019.83L652.131 1019.38L652.072 1019.35L651.869 1019.83L652.131 1019.38L652.088 1019.34L651.936 1019.16L651.885 1019.08L651.897 1019.11C649.467 1010.08 647.03 1001.06 644.596 992.045L644.588 992.018L642.713 992.538H644.651L644.588 992.018L642.713 992.538H644.651H641.784L643.671 994.659C644.272 994.171 644.683 993.175 644.651 992.538H641.784L643.671 994.659L642.503 993.339V995.222C642.538 995.222 643.085 995.183 643.671 994.659L642.503 993.339V995.222C664.206 995.222 681.866 995.222 703.573 995.222V993.902L702.749 994.824L703.573 995.222V993.902L702.749 994.824L704.249 993.156H702.015C701.996 993.754 702.351 994.496 702.749 994.824L704.249 993.156H702.015H703.597L702.027 992.976L702.015 993.156H703.597L702.027 992.976V992.945C700.945 1001.97 699.863 1010.98 698.781 1020L698.785 1019.98L705.102 1020.77L711.426 1021.52C712.508 1012.49 713.59 1003.48 714.672 994.469L714.676 994.434L714.754 993.153C714.773 990.133 713.398 987.243 711.285 985.364C709.18 983.458 706.398 982.473 703.57 982.473C681.863 982.473 664.203 982.473 642.5 982.473C639.937 982.469 637.277 983.293 635.211 985.125C633.133 986.93 631.875 989.77 631.91 992.535C631.91 993.508 632.047 994.473 632.301 995.39L632.293 995.367C634.727 1004.38 637.164 1013.39 639.594 1022.41L639.602 1022.45C640.368 1025.17 641.875 1027.35 643.813 1029.02C645.758 1030.67 648.251 1031.94 651.399 1031.97C669.008 1031.97 682.563 1031.97 700.172 1031.97C703.324 1031.96 705.981 1030.58 707.867 1028.73C709.765 1026.86 711.058 1024.4 711.422 1021.55L711.426 1021.52L705.102 1020.77Z" fill="#353535" style="fill:#353535;fill:color(display-p3 0.2078 0.2078 0.2078);fill-opacity:1;"/>
<path d="M918.895 1020.77C918.157 1023.45 915.625 1025.61 913.239 1025.61C895.626 1025.61 878.028 1025.61 860.419 1025.61C858.028 1025.61 855.825 1023.45 855.493 1020.77C854.407 1011.73 853.325 1002.72 852.247 993.707C851.911 991.027 854.048 988.848 857.02 988.848C878.723 988.848 900.438 988.848 922.141 988.848C925.114 988.848 926.93 991.028 926.192 993.707C923.762 1002.72 921.324 1011.73 918.895 1020.77Z" fill="#444444" style="fill:#444444;fill:color(display-p3 0.2667 0.2667 0.2667);fill-opacity:1;"/>
<path d="M918.895 1020.77L912.75 1019.08L912.699 1019.17L912.504 1019.38L913.238 1020.55V1019.24C912.675 1019.25 912.508 1019.38 912.508 1019.38L913.238 1020.55V1019.24C895.625 1019.24 878.027 1019.23 860.418 1019.23V1020.89L861.645 1019.64C861.543 1019.54 861.18 1019.25 860.418 1019.23V1020.89L861.645 1019.64L861.247 1020.05L861.813 1019.98L861.645 1019.64L861.247 1020.05L861.813 1019.98V1020C860.731 1010.97 859.649 1001.97 858.571 992.95L858.567 992.915L856.676 993.149H858.578L858.567 992.915L856.676 993.149H858.578H856.339L857.843 994.821C858.245 994.493 858.602 993.751 858.578 993.149H856.339L857.843 994.821L857.019 993.907V995.22L857.843 994.822L857.019 993.907V995.22C878.722 995.22 900.437 995.221 922.14 995.221V993.323L920.96 994.651C921.542 995.174 922.097 995.225 922.14 995.221V993.323L920.96 994.651L922.851 992.526L919.984 992.53C919.953 993.178 920.363 994.171 920.961 994.651L922.852 992.526L919.984 992.53H921.844L920.043 992.042L919.984 992.53H921.844L920.043 992.042C917.609 1001.06 915.175 1010.08 912.741 1019.1L912.749 1019.08L918.895 1020.77L925.043 1022.42C927.477 1013.39 929.91 1004.38 932.34 995.36C932.582 994.469 932.723 993.512 932.723 992.528C932.754 989.77 931.5 986.934 929.426 985.137C927.371 983.305 924.711 982.465 922.141 982.473C900.438 982.473 878.723 982.473 857.02 982.473C854.196 982.473 851.418 983.453 849.309 985.36C847.192 987.231 845.821 990.126 845.84 993.149L845.922 994.493V994.458C847 1003.48 848.082 1012.49 849.168 1021.52V1021.55C849.535 1024.4 850.824 1026.86 852.719 1028.73C854.606 1030.58 857.266 1031.96 860.418 1031.97C878.027 1031.97 895.625 1031.97 913.238 1031.97C916.383 1031.94 918.879 1030.67 920.824 1029.02C922.765 1027.35 924.269 1025.17 925.035 1022.45L925.043 1022.42L918.895 1020.77Z" fill="#353535" style="fill:#353535;fill:color(display-p3 0.2078 0.2078 0.2078);fill-opacity:1;"/>
<path d="M893.344 1020.77C893.012 1023.45 890.801 1025.61 888.41 1025.61C870.805 1025.61 857.246 1025.61 839.637 1025.61C837.258 1025.61 834.723 1023.45 833.981 1020.77C831.551 1011.73 829.118 1002.72 826.688 993.707C825.95 991.027 827.77 988.848 830.735 988.848C852.442 988.848 870.106 988.848 891.809 988.848C894.786 988.848 896.922 991.028 896.59 993.707C895.504 1002.72 894.426 1011.73 893.344 1020.77Z" fill="#565656" style="fill:#565656;fill:color(display-p3 0.3373 0.3373 0.3373);fill-opacity:1;"/>
<path d="M893.344 1020.77L887.024 1019.98L887.598 1020.05L887.192 1019.64L887.024 1019.98L887.598 1020.05L887.192 1019.64L888.411 1020.88V1019.23C887.649 1019.25 887.294 1019.54 887.192 1019.64L888.411 1020.88V1019.23C870.806 1019.23 857.247 1019.23 839.638 1019.23V1020.96L840.314 1019.35L839.638 1019.23V1020.96L840.314 1019.35L840.115 1019.83L840.373 1019.37L840.314 1019.35L840.115 1019.83L840.373 1019.37L840.33 1019.34L840.174 1019.16L840.123 1019.07L840.135 1019.11C837.705 1010.07 835.272 1001.06 832.842 992.041L832.83 992.01L830.935 992.533H832.892L832.829 992.01L830.935 992.533H832.891H830.028L831.919 994.646C832.517 994.166 832.927 993.173 832.892 992.533H830.028L831.919 994.646L830.736 993.322V995.217C830.783 995.217 831.334 995.17 831.92 994.647L830.736 993.322V995.217C852.443 995.217 870.107 995.218 891.81 995.218V993.898L890.986 994.82L891.81 995.218V993.898L890.986 994.82L892.486 993.152H890.256C890.236 993.757 890.588 994.492 890.986 994.82L892.486 993.152H890.256H891.983L890.268 992.949L890.256 993.152H891.983L890.268 992.949C889.182 1001.96 888.104 1010.98 887.022 1020L887.026 1019.98L893.344 1020.77L899.668 1021.52C900.75 1012.49 901.828 1003.48 902.91 994.469L902.992 993.153C903.012 990.126 901.633 987.243 899.523 985.364C897.414 983.458 894.636 982.473 891.808 982.473C870.105 982.473 852.441 982.473 830.734 982.473C828.171 982.469 825.511 983.301 823.449 985.137C821.375 986.934 820.121 989.77 820.152 992.535C820.152 993.512 820.293 994.48 820.55 995.402L820.538 995.359C822.968 1004.38 825.401 1013.39 827.831 1022.41L827.843 1022.46C828.609 1025.18 830.116 1027.35 832.054 1029.02C833.999 1030.67 836.492 1031.94 839.636 1031.97C857.245 1031.97 870.804 1031.97 888.409 1031.97C891.561 1031.96 894.214 1030.59 896.104 1028.74C898.002 1026.87 899.299 1024.41 899.663 1021.55L899.667 1021.52L893.344 1020.77Z" fill="#353535" style="fill:#353535;fill:color(display-p3 0.2078 0.2078 0.2078);fill-opacity:1;"/>
<path d="M1056.03 1020.77C1055.29 1023.45 1052.76 1025.61 1050.37 1025.61C1032.76 1025.61 1015.16 1025.61 997.547 1025.61C995.164 1025.61 992.953 1023.45 992.625 1020.77C991.539 1011.73 990.461 1002.72 989.375 993.707C989.039 991.027 991.176 988.848 994.156 988.848C1015.86 988.848 1037.57 988.848 1059.27 988.848C1062.25 988.848 1064.06 991.028 1063.32 993.707C1060.89 1002.72 1058.46 1011.73 1056.03 1020.77Z" fill="#444444" style="fill:#444444;fill:color(display-p3 0.2667 0.2667 0.2667);fill-opacity:1;"/>
<path d="M1056.03 1020.77L1049.88 1019.08L1049.83 1019.17L1049.64 1019.38L1050.37 1020.55V1019.23C1049.81 1019.25 1049.64 1019.38 1049.64 1019.38L1050.37 1020.55V1019.23C1032.76 1019.23 1015.15 1019.23 997.546 1019.23V1020.9L998.776 1019.64C998.674 1019.55 998.315 1019.25 997.546 1019.23V1020.9L998.776 1019.64L998.374 1020.05L998.944 1019.98L998.776 1019.64L998.374 1020.04L998.944 1019.98L998.948 1020C997.862 1010.97 996.784 1001.96 995.698 992.939L995.694 992.9L993.764 993.146H995.705L995.694 992.9L993.763 993.146H995.705H993.462L994.974 994.818C995.369 994.49 995.729 993.748 995.705 993.146H993.462L994.974 994.818L994.154 993.908V995.217L994.974 994.818L994.154 993.908V995.218C1015.86 995.218 1037.56 995.218 1059.27 995.218V993.327L1058.09 994.647C1058.68 995.17 1059.23 995.221 1059.27 995.217V993.326L1058.09 994.647L1059.99 992.521H1057.11C1057.08 993.169 1057.49 994.166 1058.09 994.646L1059.99 992.521H1057.11H1058.95L1057.17 992.041L1057.11 992.521H1058.95L1057.17 992.041C1054.74 1001.06 1052.31 1010.07 1049.88 1019.11L1049.88 1019.08L1056.03 1020.77L1062.18 1022.41C1064.6 1013.39 1067.05 1004.38 1069.47 995.356C1069.71 994.469 1069.85 993.512 1069.85 992.524C1069.89 989.762 1068.63 986.934 1066.56 985.133C1064.5 983.301 1061.84 982.465 1059.27 982.473C1037.57 982.473 1015.86 982.473 994.156 982.473C991.332 982.473 988.554 983.453 986.445 985.352C984.328 987.231 982.949 990.122 982.968 993.149L983.058 994.501L983.05 994.47C984.136 1003.48 985.214 1012.49 986.3 1021.53L986.304 1021.54C986.663 1024.4 987.956 1026.86 989.851 1028.73C991.738 1030.58 994.39 1031.96 997.546 1031.97C1015.15 1031.97 1032.76 1031.97 1050.37 1031.97C1053.52 1031.94 1056.01 1030.67 1057.96 1029.03C1059.89 1027.35 1061.4 1025.17 1062.17 1022.45L1062.18 1022.42L1056.03 1020.77Z" fill="#353535" style="fill:#353535;fill:color(display-p3 0.2078 0.2078 0.2078);fill-opacity:1;"/>
<path d="M1030.48 1020.77C1030.14 1023.45 1027.93 1025.61 1025.54 1025.61C1007.93 1025.61 994.379 1025.61 976.773 1025.61C974.382 1025.61 971.855 1023.45 971.117 1020.77C968.683 1011.73 966.25 1002.72 963.82 993.707C963.082 991.027 964.898 988.848 967.871 988.848C989.574 988.848 1007.23 988.848 1028.94 988.848C1031.91 988.848 1034.05 991.028 1033.72 993.707C1032.64 1002.72 1031.55 1011.73 1030.48 1020.77Z" fill="#565656" style="fill:#565656;fill:color(display-p3 0.3373 0.3373 0.3373);fill-opacity:1;"/>
<path d="M1030.48 1020.77L1024.16 1019.97L1024.71 1020.04L1024.32 1019.64L1024.16 1019.97L1024.71 1020.04L1024.32 1019.64L1025.54 1020.88V1019.24C1024.78 1019.25 1024.42 1019.54 1024.32 1019.64L1025.54 1020.88V1019.24C1007.93 1019.24 994.38 1019.24 976.774 1019.24V1020.95L977.442 1019.35L976.774 1019.24V1020.95L977.442 1019.35L977.243 1019.83L977.505 1019.38L977.442 1019.35L977.243 1019.83L977.505 1019.38L977.462 1019.34L977.306 1019.16L977.255 1019.07L977.267 1019.1C974.837 1010.07 972.404 1001.06 969.97 992.043L969.962 992.016L968.087 992.536H970.025L969.962 992.016L968.087 992.536H970.025H967.162L969.049 994.649C969.651 994.161 970.06 993.172 970.025 992.536H967.162L969.05 994.649L967.874 993.329V995.22C967.913 995.224 968.464 995.173 969.05 994.65L967.874 993.329V995.22C989.577 995.22 1007.24 995.221 1028.94 995.221V993.901L1028.12 994.823L1028.94 995.221V993.901L1028.12 994.823L1029.62 993.155H1027.39C1027.37 993.76 1027.72 994.495 1028.12 994.823L1029.62 993.155H1027.39H1029.2L1027.4 992.94L1027.39 993.155H1029.2L1027.4 992.94C1026.32 1001.96 1025.23 1010.98 1024.16 1020.01L1024.16 1019.97L1030.48 1020.77L1036.8 1021.52C1037.88 1012.49 1038.96 1003.48 1040.04 994.462L1040.12 993.153C1040.14 990.126 1038.77 987.243 1036.66 985.364C1034.55 983.458 1031.77 982.473 1028.94 982.473C1007.23 982.473 989.574 982.473 967.871 982.473C965.305 982.465 962.644 983.301 960.582 985.137C958.504 986.934 957.25 989.77 957.285 992.535C957.285 993.508 957.426 994.473 957.68 995.39L957.668 995.367C960.102 1004.38 962.535 1013.39 964.965 1022.42L964.973 1022.46C965.743 1025.17 967.246 1027.35 969.184 1029.02C971.129 1030.67 973.629 1031.94 976.774 1031.97C994.379 1031.97 1007.93 1031.97 1025.54 1031.97C1028.69 1031.96 1031.35 1030.58 1033.24 1028.74C1035.14 1026.86 1036.43 1024.41 1036.8 1021.55L1036.8 1021.52L1030.48 1020.77Z" fill="#353535" style="fill:#353535;fill:color(display-p3 0.2078 0.2078 0.2078);fill-opacity:1;"/>
<path d="M1070.57 976.922C1066.55 991.57 1052.69 1003.47 1039.63 1003.47C943.336 1003.47 847.043 1003.47 750.738 1003.47C737.679 1003.47 725.605 991.59 723.773 976.922C717.855 927.594 711.937 878.262 706.027 828.934C704.191 814.266 715.894 802.387 732.16 802.375C850.887 802.375 969.609 802.375 1088.33 802.375C1104.6 802.375 1114.52 814.266 1110.49 828.934C1097.18 878.262 1083.88 927.59 1070.57 976.922Z" fill="#444444" style="fill:#444444;fill:color(display-p3 0.2667 0.2667 0.2667);fill-opacity:1;"/>
<path d="M1070.57 976.923L1064.43 975.232C1062.81 981.177 1059.03 986.849 1054.34 990.861C1049.66 994.9 1044.19 997.138 1039.63 997.103C943.335 997.103 847.042 997.103 750.737 997.103C746.178 997.119 741.401 994.994 737.514 991.158C733.631 987.345 730.807 981.963 730.092 976.131L730.096 976.162C724.178 926.834 718.26 877.506 712.35 828.182L712.346 828.147C712.248 827.385 712.205 826.643 712.205 825.928C712.228 821.116 714.154 817.041 717.588 813.912C721.022 810.814 726.033 808.756 732.162 808.744C850.885 808.744 969.607 808.744 1088.33 808.744C1093.93 808.756 1098.09 810.463 1100.81 812.869C1103.5 815.314 1104.98 818.439 1105.01 822.525C1105.01 823.97 1104.81 825.545 1104.34 827.259L1104.33 827.275C1091.02 876.603 1077.72 925.927 1064.42 975.263L1064.43 975.232L1070.57 976.923L1076.72 978.583C1090.03 929.247 1103.34 879.919 1116.64 830.591L1116.63 830.614C1117.37 827.895 1117.75 825.176 1117.75 822.524C1117.78 815.036 1114.64 808.083 1109.27 803.348C1103.91 798.582 1096.54 796 1088.33 796.004C969.609 796.004 850.887 796.004 732.16 796.004C723.148 796.004 714.992 799.094 709.055 804.453C703.11 809.777 699.449 817.48 699.469 825.926C699.469 827.176 699.547 828.449 699.707 829.727L699.703 829.692C705.613 879.02 711.531 928.352 717.449 977.68L717.453 977.707C718.566 986.547 722.695 994.434 728.578 1000.24C734.445 1006.01 742.238 1009.83 750.738 1009.84C847.043 1009.84 943.336 1009.84 1039.63 1009.84C1048.12 1009.8 1056.12 1006.1 1062.64 1000.52C1069.15 994.918 1074.31 987.309 1076.71 978.606L1076.72 978.583L1070.57 976.923Z" fill="#353535" style="fill:#353535;fill:color(display-p3 0.2078 0.2078 0.2078);fill-opacity:1;"/>
<path d="M712.75 884.988C716.426 915.636 720.098 946.273 723.773 976.922C725.605 991.59 737.679 1003.47 750.738 1003.47H1039.63C1052.69 1003.47 1066.55 991.571 1070.57 976.922C1078.84 946.274 1087.1 915.637 1095.37 884.988H712.75Z" fill="#353535" style="fill:#353535;fill:color(display-p3 0.2078 0.2078 0.2078);fill-opacity:1;"/>
<path d="M909.328 907.688C907.488 922.333 917.621 1003.47 904.562 1003.47C808.265 1003.47 734.113 1003.47 637.812 1003.47C624.761 1003.47 610.902 991.59 606.871 976.922C593.566 927.594 580.265 878.262 566.957 828.934C562.926 814.266 572.852 802.387 589.117 802.375C707.84 802.375 804.418 802.375 923.144 802.375C939.406 802.375 951.117 814.266 949.277 828.934C943.359 878.262 915.242 858.348 909.328 907.688Z" fill="#6B6B6B" style="fill:#6B6B6B;fill:color(display-p3 0.4196 0.4196 0.4196);fill-opacity:1;"/>
<path d="M909.328 907.688L903.004 906.891C902.785 908.672 902.731 910.641 902.727 913.008C902.731 919.711 903.301 929.473 903.864 940.266C904.427 951.036 904.985 962.786 904.985 973.059C904.993 981.325 904.598 988.711 903.692 993.446C903.27 995.79 902.649 997.462 902.356 997.903L902.29 998.02H902.286L903.993 999.418L902.958 997.504L902.286 998.02L903.993 999.418L902.958 997.504L904.563 1000.48V997.102L902.958 997.504L904.563 1000.48V997.102C808.266 997.102 734.114 997.102 637.813 997.102C633.25 997.137 627.786 994.899 623.106 990.86C618.419 986.856 614.633 981.188 613.016 975.239L613.024 975.262C599.719 925.934 586.419 876.602 573.106 827.274L573.098 827.247C572.629 825.552 572.426 823.974 572.426 822.524C572.461 818.438 573.938 815.313 576.641 812.868C579.352 810.462 583.512 808.755 589.118 808.743C707.841 808.743 804.419 808.743 923.145 808.743C929.27 808.751 934.274 810.809 937.715 813.911C941.149 817.04 943.074 821.114 943.098 825.915C943.098 826.63 943.055 827.372 942.957 828.157L942.953 828.18C941.539 839.887 938.914 846.891 935.933 851.793C933.675 855.481 931.152 858.117 928.206 860.789C923.847 864.777 918.268 868.777 913.378 875.766C908.48 882.75 904.73 892.368 903.003 906.93L903.004 906.891L909.328 907.688L915.648 908.446C917.062 896.723 919.691 889.727 922.671 884.821C924.925 881.13 927.448 878.497 930.398 875.821C934.753 871.833 940.332 867.833 945.226 860.848C950.121 853.86 953.874 844.25 955.601 829.692L955.597 829.715C955.757 828.442 955.835 827.172 955.835 825.914C955.855 817.477 952.19 809.777 946.245 804.449C940.304 799.09 932.151 796 923.143 796.004C804.416 796.004 707.838 796.004 589.116 796.004C580.905 796 573.534 798.582 568.171 803.348C562.796 808.082 559.651 815.036 559.687 822.524C559.687 825.176 560.066 827.895 560.812 830.626L560.804 830.591C574.117 879.919 587.417 929.251 600.722 978.583L600.73 978.606C603.14 987.321 608.296 994.922 614.812 1000.53C621.328 1006.1 629.324 1009.8 637.812 1009.84C734.113 1009.84 808.265 1009.84 904.562 1009.84C906.585 1009.86 908.667 1009.11 910.136 1008C912.738 1006.03 913.851 1003.66 914.761 1001.3C916.054 997.7 916.695 993.599 917.136 988.837C917.562 984.091 917.722 978.743 917.722 973.06C917.722 962.341 917.148 950.423 916.581 939.599C916.015 928.802 915.46 919.029 915.464 913.009C915.46 910.927 915.538 909.275 915.648 908.478V908.446L909.328 907.688Z" fill="#353535" style="fill:#353535;fill:color(display-p3 0.2078 0.2078 0.2078);fill-opacity:1;"/>
<path d="M909.098 912.211H589.422C595.238 933.789 601.055 955.352 606.871 976.922C610.902 991.59 624.762 1003.47 637.812 1003.47H904.562C916.613 1003.47 908.918 934.434 909.098 912.211Z" fill="#565656" style="fill:#565656;fill:color(display-p3 0.3373 0.3373 0.3373);fill-opacity:1;"/>
<path d="M909.098 912.212V905.841H589.422C587.442 905.841 585.57 906.767 584.363 908.337C583.164 909.907 582.757 911.954 583.273 913.868C589.086 935.446 594.906 957.009 600.722 978.583L600.73 978.606C603.14 987.321 608.296 994.922 614.812 1000.53C621.328 1006.1 629.324 1009.8 637.812 1009.84H904.562C906.585 1009.86 908.667 1009.11 910.136 1008.01C912.738 1006.03 913.851 1003.66 914.761 1001.3C916.054 997.704 916.695 993.603 917.136 988.841C917.566 984.099 917.722 978.755 917.722 973.071C917.722 962.344 917.148 950.426 916.581 939.594C916.015 928.789 915.456 919.004 915.46 912.985L915.464 912.278C915.48 910.579 914.823 908.946 913.624 907.727C912.429 906.52 910.796 905.84 909.097 905.84L909.098 912.212L902.726 912.138L902.722 912.986C902.726 919.693 903.296 929.463 903.863 940.259C904.426 951.04 904.984 962.79 904.984 973.072C904.992 981.338 904.597 988.717 903.695 993.447C903.269 995.791 902.648 997.463 902.355 997.904L902.289 998.021L903.988 999.419L902.961 997.505L902.289 998.021L903.988 999.419L902.961 997.505L904.563 1000.48V997.103L902.961 997.505L904.563 1000.48V997.103H637.813C633.25 997.138 627.786 994.9 623.106 990.861C618.419 986.857 614.633 981.189 613.016 975.24L613.024 975.263C607.208 953.693 601.387 932.13 595.575 910.552L589.423 912.212V918.583H909.099L909.098 912.212Z" fill="#353535" style="fill:#353535;fill:color(display-p3 0.2078 0.2078 0.2078);fill-opacity:1;"/>
<path d="M932.59 911.402V977.062C932.59 980.578 935.442 983.429 938.961 983.429C942.48 983.429 945.328 980.577 945.328 977.062V911.402C945.328 907.886 942.48 905.031 938.961 905.031C935.442 905.031 932.59 907.887 932.59 911.402Z" fill="#444444" style="fill:#444444;fill:color(display-p3 0.2667 0.2667 0.2667);fill-opacity:1;"/>
<path d="M955.562 911.402V977.062C955.562 980.578 958.411 983.429 961.93 983.429C965.449 983.429 968.301 980.577 968.301 977.062V911.402C968.301 907.886 965.449 905.031 961.93 905.031C958.411 905.031 955.562 907.887 955.562 911.402Z" fill="#444444" style="fill:#444444;fill:color(display-p3 0.2667 0.2667 0.2667);fill-opacity:1;"/>
<path d="M978.531 911.402V977.062C978.531 980.578 981.383 983.429 984.902 983.429C988.421 983.429 991.269 980.577 991.269 977.062V911.402C991.269 907.886 988.421 905.031 984.902 905.031C981.383 905.031 978.531 907.887 978.531 911.402Z" fill="#444444" style="fill:#444444;fill:color(display-p3 0.2667 0.2667 0.2667);fill-opacity:1;"/>
<path d="M1000.84 911.402V977.062C1000.84 980.578 1003.68 983.429 1007.2 983.429C1010.72 983.429 1013.57 980.577 1013.57 977.062V911.402C1013.57 907.886 1010.72 905.031 1007.2 905.031C1003.68 905.031 1000.84 907.887 1000.84 911.402Z" fill="#444444" style="fill:#444444;fill:color(display-p3 0.2667 0.2667 0.2667);fill-opacity:1;"/>
<path d="M1023.81 911.402V977.062C1023.81 980.578 1026.66 983.429 1030.18 983.429C1033.7 983.429 1036.55 980.577 1036.55 977.062V911.402C1036.55 907.886 1033.69 905.031 1030.18 905.031C1026.66 905.031 1023.81 907.887 1023.81 911.402Z" fill="#444444" style="fill:#444444;fill:color(display-p3 0.2667 0.2667 0.2667);fill-opacity:1;"/>
<path d="M1046.78 911.402V977.062C1046.78 980.578 1049.63 983.429 1053.15 983.429C1056.67 983.429 1059.52 980.577 1059.52 977.062V911.402C1059.52 907.886 1056.67 905.031 1053.15 905.031C1049.63 905.031 1046.78 907.887 1046.78 911.402Z" fill="#444444" style="fill:#444444;fill:color(display-p3 0.2667 0.2667 0.2667);fill-opacity:1;"/>
<path d="M945.504 586.625H922.465C918.945 586.625 916.098 589.473 916.098 592.996C916.098 596.512 918.946 599.363 922.465 599.363H945.504C949.02 599.363 951.871 596.511 951.871 592.996C951.871 589.473 949.02 586.625 945.504 586.625Z" fill="#353535" style="fill:#353535;fill:color(display-p3 0.2078 0.2078 0.2078);fill-opacity:1;"/>
<path d="M945.504 606.461H922.465C918.945 606.461 916.098 609.317 916.098 612.836C916.098 616.352 918.946 619.207 922.465 619.207H945.504C949.02 619.207 951.871 616.352 951.871 612.836C951.871 609.316 949.02 606.461 945.504 606.461Z" fill="#353535" style="fill:#353535;fill:color(display-p3 0.2078 0.2078 0.2078);fill-opacity:1;"/>
<path d="M945.504 626.297H922.465C918.945 626.297 916.098 629.152 916.098 632.668C916.098 636.184 918.946 639.039 922.465 639.039H945.504C949.02 639.039 951.871 636.184 951.871 632.668C951.871 629.152 949.02 626.297 945.504 626.297Z" fill="#353535" style="fill:#353535;fill:color(display-p3 0.2078 0.2078 0.2078);fill-opacity:1;"/>
<path d="M945.504 646.113H922.465C918.945 646.113 916.098 648.961 916.098 652.484C916.098 656 918.946 658.851 922.465 658.851H945.504C949.02 658.851 951.871 655.999 951.871 652.484C951.871 648.961 949.02 646.113 945.504 646.113Z" fill="#353535" style="fill:#353535;fill:color(display-p3 0.2078 0.2078 0.2078);fill-opacity:1;"/>
<path d="M945.504 665.945H922.465C918.945 665.945 916.098 668.797 916.098 672.316C916.098 675.832 918.946 678.683 922.465 678.683H945.504C949.02 678.683 951.871 675.831 951.871 672.316C951.871 668.797 949.02 665.945 945.504 665.945Z" fill="#353535" style="fill:#353535;fill:color(display-p3 0.2078 0.2078 0.2078);fill-opacity:1;"/>
<path d="M945.504 685.777H922.465C918.945 685.777 916.098 688.629 916.098 692.148C916.098 695.668 918.946 698.515 922.465 698.515H945.504C949.02 698.515 951.871 695.667 951.871 692.148C951.871 688.629 949.02 685.777 945.504 685.777Z" fill="#353535" style="fill:#353535;fill:color(display-p3 0.2078 0.2078 0.2078);fill-opacity:1;"/>
<path d="M945.504 705.605H922.465C918.945 705.605 916.098 708.46 916.098 711.976C916.098 715.492 918.946 718.351 922.465 718.351H945.504C949.02 718.351 951.871 715.492 951.871 711.976C951.871 708.46 949.02 705.605 945.504 705.605Z" fill="#353535" style="fill:#353535;fill:color(display-p3 0.2078 0.2078 0.2078);fill-opacity:1;"/>
<path d="M719.766 865.734C719.766 874.922 712.317 882.364 703.129 882.364H619.965C610.781 882.364 603.336 874.922 603.336 865.734C603.336 856.55 610.781 849.105 619.965 849.105H703.129C712.316 849.105 719.766 856.551 719.766 865.734Z" fill="#444444" style="fill:#444444;fill:color(display-p3 0.2667 0.2667 0.2667);fill-opacity:1;"/>
<path d="M719.766 865.734H713.395C713.383 871.398 708.801 875.98 703.129 875.992H619.965C614.301 875.98 609.719 871.398 609.707 865.734C609.719 860.074 614.305 855.48 619.965 855.476H703.129C708.797 855.48 713.383 860.074 713.395 865.734H719.766H726.133C726.129 853.027 715.836 842.738 703.129 842.73H619.965C607.258 842.738 596.969 853.027 596.969 865.734C596.969 878.437 607.262 888.73 619.965 888.734H703.129C715.832 888.73 726.129 878.437 726.133 865.734H719.766Z" fill="#353535" style="fill:#353535;fill:color(display-p3 0.2078 0.2078 0.2078);fill-opacity:1;"/>
<path d="M884.734 865.734C884.734 874.922 877.285 882.364 868.105 882.364H784.937C775.753 882.364 768.308 874.922 768.308 865.734C768.308 856.55 775.753 849.105 784.937 849.105H868.105C877.285 849.105 884.734 856.551 884.734 865.734Z" fill="#444444" style="fill:#444444;fill:color(display-p3 0.2667 0.2667 0.2667);fill-opacity:1;"/>
<path d="M884.734 865.734H878.363C878.351 871.398 873.769 875.98 868.105 875.992H784.937C779.273 875.98 774.691 871.398 774.679 865.734C774.691 860.074 779.277 855.48 784.937 855.476H868.105C873.765 855.48 878.351 860.074 878.363 865.734H884.734H891.101C891.097 853.027 880.808 842.738 868.105 842.73H784.937C772.23 842.738 761.941 853.027 761.941 865.734C761.941 878.437 772.234 888.73 784.937 888.734H868.105C880.804 888.722 891.101 878.437 891.101 865.734H884.734Z" fill="#353535" style="fill:#353535;fill:color(display-p3 0.2078 0.2078 0.2078);fill-opacity:1;"/>
<path d="M791.723 865.734C791.723 868.343 789.606 870.457 786.996 870.457C784.387 870.457 782.269 868.344 782.269 865.734C782.269 863.129 784.386 861.004 786.996 861.004C789.605 861.004 791.723 863.129 791.723 865.734Z" fill="#888888" style="fill:#888888;fill:color(display-p3 0.5333 0.5333 0.5333);fill-opacity:1;"/>
<path d="M811.484 865.734C811.484 868.343 809.367 870.457 806.761 870.457C804.148 870.457 802.031 868.344 802.031 865.734C802.031 863.129 804.148 861.004 806.761 861.004C809.367 861.004 811.484 863.129 811.484 865.734Z" fill="#888888" style="fill:#888888;fill:color(display-p3 0.5333 0.5333 0.5333);fill-opacity:1;"/>
<path d="M831.246 865.734C831.246 868.343 829.129 870.457 826.515 870.457C823.91 870.457 821.796 868.344 821.796 865.734C821.796 863.129 823.909 861.004 826.515 861.004C829.129 861.004 831.246 863.129 831.246 865.734Z" fill="#888888" style="fill:#888888;fill:color(display-p3 0.5333 0.5333 0.5333);fill-opacity:1;"/>
<path d="M851.012 865.734C851.012 868.343 848.895 870.457 846.289 870.457C843.672 870.457 841.558 868.344 841.558 865.734C841.558 863.129 843.671 861.004 846.289 861.004C848.894 861.004 851.012 863.129 851.012 865.734Z" fill="#888888" style="fill:#888888;fill:color(display-p3 0.5333 0.5333 0.5333);fill-opacity:1;"/>
<path d="M870.77 865.734C870.77 868.343 868.657 870.457 866.047 870.457C863.437 870.457 861.32 868.344 861.32 865.734C861.32 863.129 863.437 861.004 866.047 861.004C868.657 861.004 870.77 863.129 870.77 865.734Z" fill="#888888" style="fill:#888888;fill:color(display-p3 0.5333 0.5333 0.5333);fill-opacity:1;"/>
<path d="M729.234 801.176C728.738 781.633 712.75 765.93 693.082 765.93C673.418 765.93 657.43 781.633 656.934 801.176H729.234Z" fill="#505050" style="fill:#505050;fill:color(display-p3 0.3137 0.3137 0.3137);fill-opacity:1;"/>
<path d="M729.234 801.176L735.601 801.012C735.011 778.02 716.218 759.563 693.081 759.559C669.948 759.563 651.151 778.02 650.565 801.016C650.522 802.735 651.167 804.387 652.374 805.625C653.577 806.856 655.206 807.547 656.933 807.547H729.234C730.961 807.547 732.589 806.856 733.797 805.621C735 804.387 735.644 802.734 735.601 801.012L729.234 801.176V794.805H656.933V801.176L663.3 801.336C663.702 785.246 676.886 772.293 693.081 772.297C709.276 772.293 722.46 785.238 722.866 801.336L729.234 801.176Z" fill="#353535" style="fill:#353535;fill:color(display-p3 0.2078 0.2078 0.2078);fill-opacity:1;"/>
<path d="M883.785 801.176C883.289 781.633 867.301 765.93 847.637 765.93C827.969 765.93 811.981 781.633 811.485 801.176H883.785Z" fill="#505050" style="fill:#505050;fill:color(display-p3 0.3137 0.3137 0.3137);fill-opacity:1;"/>
<path d="M883.785 801.176L890.152 801.012C889.562 778.02 870.769 759.563 847.636 759.559C824.495 759.563 805.706 778.02 805.113 801.012C805.07 802.735 805.718 804.387 806.922 805.621C808.125 806.855 809.758 807.547 811.485 807.547H883.786C885.513 807.547 887.145 806.856 888.352 805.621C889.555 804.387 890.199 802.734 890.152 801.012L883.785 801.176V794.805H811.484V801.176L817.847 801.336C818.257 785.238 831.437 772.293 847.636 772.297C863.831 772.293 877.011 785.238 877.421 801.336L883.785 801.176Z" fill="#353535" style="fill:#353535;fill:color(display-p3 0.2078 0.2078 0.2078);fill-opacity:1;"/>
<path d="M678.504 865.734C678.504 874.922 671.055 882.364 661.867 882.364H578.703C569.519 882.364 562.074 874.922 562.074 865.734C562.074 856.55 569.519 849.105 578.703 849.105H661.867C671.055 849.105 678.504 856.551 678.504 865.734Z" fill="#505050" style="fill:#505050;fill:color(display-p3 0.3137 0.3137 0.3137);fill-opacity:1;"/>
<path d="M678.504 865.734H672.137C672.125 871.394 667.539 875.98 661.868 875.992H578.704C573.04 875.98 568.454 871.398 568.446 865.734C568.454 860.074 573.04 855.48 578.704 855.476H661.868C667.536 855.48 672.126 860.074 672.137 865.734H678.504H684.875C684.867 853.027 674.574 842.738 661.867 842.73H578.703C565.996 842.738 555.707 853.027 555.703 865.734C555.707 878.437 566 888.73 578.703 888.734H661.867C674.57 888.722 684.871 878.445 684.875 865.734H678.504Z" fill="#353535" style="fill:#353535;fill:color(display-p3 0.2078 0.2078 0.2078);fill-opacity:1;"/>
<path d="M527.008 924.325C519.723 924.317 513.184 921.395 508.406 916.614C503.636 911.837 500.703 905.305 500.699 898.02C500.703 890.739 503.637 884.196 508.406 879.418C513.183 874.648 519.722 871.719 527.008 871.715H621.508C625.028 871.715 627.879 868.863 627.879 865.348C627.879 861.824 625.027 858.981 621.508 858.981L527.008 858.977C505.442 858.981 487.965 876.454 487.961 898.02C487.965 919.583 505.438 937.063 527.008 937.063C530.527 937.063 533.375 934.211 533.375 930.696C533.375 927.173 530.527 924.329 527.008 924.329V924.325Z" fill="#353535" style="fill:#353535;fill:color(display-p3 0.2078 0.2078 0.2078);fill-opacity:1;"/>
<path d="M549.724 1002.26C571.29 1002.26 588.762 984.785 588.766 963.227C588.762 941.661 571.29 924.18 549.724 924.176H528.98C525.46 924.176 522.605 927.028 522.605 930.547C522.605 934.07 525.46 936.918 528.98 936.918L549.722 936.914C557.003 936.918 563.542 939.848 568.32 944.621C573.09 949.402 576.023 955.937 576.027 963.226C576.023 970.503 573.094 977.042 568.324 981.82C563.543 986.593 557.008 989.519 549.722 989.523C546.202 989.523 543.352 992.375 543.352 995.894C543.352 999.417 546.203 1002.27 549.722 1002.27V1002.26H549.724Z" fill="#353535" style="fill:#353535;fill:color(display-p3 0.2078 0.2078 0.2078);fill-opacity:1;"/>
<path d="M549.723 989.523H442.363C438.844 989.523 435.996 992.376 435.996 995.895C435.996 999.411 438.844 1002.26 442.363 1002.26H549.722C553.242 1002.26 556.089 999.41 556.089 995.895C556.09 992.376 553.242 989.523 549.723 989.523Z" fill="#353535" style="fill:#353535;fill:color(display-p3 0.2078 0.2078 0.2078);fill-opacity:1;"/>
<path d="M263.805 851.715C263.805 865.41 252.703 876.508 239.012 876.508C225.324 876.508 214.223 865.41 214.223 851.715C214.223 838.027 225.325 826.922 239.012 826.922C252.703 826.922 263.805 838.027 263.805 851.715Z" fill="#505050" style="fill:#505050;fill:color(display-p3 0.3137 0.3137 0.3137);fill-opacity:1;"/>
<path d="M263.805 851.715H257.434C257.414 861.887 249.184 870.121 239.012 870.137C228.848 870.121 220.614 861.887 220.594 851.715C220.614 841.547 228.848 833.309 239.012 833.285C249.184 833.308 257.414 841.547 257.434 851.715H263.805H270.176C270.168 834.504 256.227 820.555 239.012 820.547C221.801 820.555 207.86 834.504 207.856 851.715C207.86 868.926 221.805 882.875 239.012 882.875C256.223 882.875 270.172 868.926 270.176 851.715H263.805Z" fill="#353535" style="fill:#353535;fill:color(display-p3 0.2078 0.2078 0.2078);fill-opacity:1;"/>
<path d="M336.864 769.676H308.805V949.668H336.864V769.676Z" fill="#646464" style="fill:#646464;fill:color(display-p3 0.3922 0.3922 0.3922);fill-opacity:1;"/>
<path d="M336.863 949.668V943.297H315.175V776.039H330.491V949.668H336.863H343.23V769.676C343.23 767.996 342.55 766.356 341.367 765.172C340.183 763.984 338.539 763.301 336.863 763.301H308.804C307.124 763.301 305.484 763.981 304.3 765.172C303.116 766.356 302.438 767.996 302.438 769.676V949.668C302.438 951.344 303.117 952.984 304.3 954.176C305.488 955.36 307.124 956.043 308.804 956.043H336.863C338.539 956.043 340.179 955.359 341.367 954.176C342.551 952.985 343.23 951.344 343.23 949.668H336.863Z" fill="#353535" style="fill:#353535;fill:color(display-p3 0.2078 0.2078 0.2078);fill-opacity:1;"/>
<path d="M371.105 837.43C370.324 834.594 367.652 832.305 365.128 832.305C346.526 832.305 327.933 832.305 309.335 832.305C306.812 832.305 304.48 834.594 304.128 837.43C302.983 846.953 301.843 856.485 300.698 866.008C300.343 868.84 302.604 871.133 305.749 871.133C328.675 871.133 351.601 871.133 374.526 871.133C377.671 871.133 379.585 868.84 378.807 866.008C376.238 856.484 373.668 846.953 371.105 837.43Z" fill="#444444" style="fill:#444444;fill:color(display-p3 0.2667 0.2667 0.2667);fill-opacity:1;"/>
<path d="M371.105 837.431L377.246 835.74C376.461 832.947 374.91 830.693 372.914 828.967C370.918 827.276 368.348 825.967 365.129 825.932C346.527 825.932 327.934 825.932 309.336 825.932C306.106 825.952 303.383 827.362 301.453 829.26C299.508 831.186 298.183 833.721 297.808 836.647L297.804 836.67C296.659 846.193 295.519 855.729 294.374 865.252L294.382 865.205L294.292 866.584C294.272 869.678 295.679 872.627 297.839 874.549C299.995 876.494 302.843 877.506 305.749 877.506C328.675 877.506 351.601 877.506 374.526 877.506C377.163 877.514 379.885 876.658 381.987 874.787C384.104 872.943 385.382 870.064 385.35 867.244C385.35 866.24 385.205 865.256 384.944 864.314L384.956 864.345C382.39 854.829 379.819 845.294 377.253 835.771L377.246 835.74L371.105 837.431L364.953 839.087C367.519 848.61 370.09 858.138 372.656 867.665L372.668 867.696L374.32 867.243H372.613L372.668 867.696L374.32 867.243H372.613H375.285L373.523 865.263C372.964 865.716 372.578 866.662 372.613 867.243H375.285L373.523 865.263L374.968 866.888L374.245 864.829L373.522 865.263L374.967 866.888L374.245 864.829L374.525 865.638V864.763L374.245 864.829L374.525 865.638V864.763C351.599 864.763 328.673 864.763 305.748 864.763V865.787L306.373 865.092L305.748 864.763V865.787L306.373 865.093L305.025 866.585H307.029C307.049 866.05 306.724 865.374 306.373 865.093L305.025 866.585H307.029H305.248L307.018 866.812L307.03 866.585H305.249L307.019 866.812L307.023 866.765C308.168 857.242 309.308 847.714 310.453 838.191L310.449 838.218L310.23 838.191L310.386 838.343L310.449 838.218L310.23 838.191L310.386 838.343L309.335 837.273V838.671C310.042 838.659 310.335 838.394 310.386 838.343L309.335 837.273V838.671C327.933 838.671 346.526 838.671 365.128 838.671V837.206L364.55 838.581L365.128 838.671V837.206L364.55 838.581L364.632 838.39L364.526 838.57L364.549 838.582L364.631 838.391L364.525 838.571L364.959 839.118L364.951 839.091L371.105 837.431Z" fill="#353535" style="fill:#353535;fill:color(display-p3 0.2078 0.2078 0.2078);fill-opacity:1;"/>
<path d="M344.113 837.43C343.758 834.594 341.425 832.305 338.906 832.305C320.308 832.305 305.988 832.305 287.394 832.305C284.871 832.305 282.191 834.594 281.414 837.43C278.844 846.953 276.277 856.485 273.703 866.008C272.926 868.84 274.844 871.133 277.984 871.133C300.914 871.133 319.562 871.133 342.492 871.133C345.633 871.133 347.894 868.84 347.543 866.008C346.398 856.484 345.254 846.953 344.113 837.43Z" fill="#565656" style="fill:#565656;fill:color(display-p3 0.3373 0.3373 0.3373);fill-opacity:1;"/>
<path d="M344.113 837.43L350.433 836.633C350.054 833.715 348.73 831.184 346.788 829.258C344.85 827.36 342.132 825.949 338.905 825.93C320.307 825.93 305.987 825.93 287.393 825.93C284.17 825.965 281.604 827.274 279.604 828.965C277.608 830.692 276.057 832.945 275.272 835.738L275.26 835.769C272.694 845.292 270.127 854.828 267.553 864.339L267.561 864.312C267.303 865.25 267.159 866.238 267.159 867.242C267.128 870.058 268.405 872.941 270.518 874.781C272.62 876.652 275.342 877.511 277.983 877.504C300.913 877.504 319.561 877.504 342.491 877.504C345.393 877.504 348.241 876.492 350.397 874.547C352.557 872.629 353.967 869.676 353.944 866.582L353.862 865.238C352.721 855.726 351.577 846.191 350.436 836.668L350.433 836.633L344.113 837.43L337.789 838.188C338.93 847.711 340.074 857.239 341.219 866.762L342.766 866.582H341.207L341.219 866.773L342.766 866.582H341.207H343.211L341.863 865.09C341.511 865.375 341.187 866.047 341.207 866.582H343.211L341.863 865.09L342.492 865.785V864.761L341.863 865.09L342.492 865.785V864.761C319.562 864.761 300.914 864.76 277.984 864.76V865.647L278.277 864.827L277.984 864.76V865.647L278.277 864.827L277.488 867.066L279.371 865.683L278.277 864.827L277.488 867.066L279.371 865.683L277.25 867.234L279.898 867.242L279.371 865.683L277.25 867.234L279.898 867.242H278.168L279.844 867.695L279.898 867.242H278.169L279.845 867.695L279.853 867.668C282.431 858.137 284.998 848.609 287.564 839.09L287.556 839.113L287.896 838.636L287.982 838.573L287.986 838.565L287.396 837.315V838.667L287.986 838.565L287.396 837.315V838.667C305.99 838.667 320.31 838.667 338.908 838.667V837.269L337.857 838.339C337.904 838.39 338.197 838.655 338.908 838.667V837.269L337.857 838.339L337.998 838.191L337.795 838.218L337.858 838.339L337.999 838.191L337.795 838.218L337.792 838.187L344.113 837.43Z" fill="#353535" style="fill:#353535;fill:color(display-p3 0.2078 0.2078 0.2078);fill-opacity:1;"/>
<path d="M391.57 867.816C389.945 861.91 384.355 857.113 379.089 857.113C340.257 857.113 301.429 857.113 262.597 857.113C257.331 857.113 252.464 861.91 251.722 867.816C249.335 887.718 246.952 907.609 244.566 927.496C243.828 933.41 248.546 938.207 255.105 938.207C302.98 938.207 350.855 938.207 398.73 938.207C405.289 938.207 409.289 933.41 407.664 927.496C402.293 907.609 396.934 887.719 391.57 867.816Z" fill="#444444" style="fill:#444444;fill:color(display-p3 0.2667 0.2667 0.2667);fill-opacity:1;"/>
<path d="M391.57 867.816L397.714 866.125C396.499 861.789 394.011 858.148 390.839 855.414C387.663 852.711 383.683 850.777 379.089 850.742C340.257 850.742 301.429 850.742 262.597 850.742C257.988 850.754 253.949 852.801 250.992 855.707C248.027 858.641 245.972 862.566 245.402 867.023L245.398 867.058C243.011 886.96 240.628 906.851 238.242 926.742L238.246 926.703C238.164 927.367 238.121 928.039 238.121 928.711C238.101 933.191 240.09 937.379 243.242 940.184C246.379 943.024 250.609 944.579 255.105 944.571C302.98 944.571 350.855 944.571 398.73 944.571C402.82 944.583 406.75 943.274 409.699 940.645C412.664 938.051 414.43 934.114 414.394 930.075C414.394 928.649 414.191 927.216 413.804 925.809L413.812 925.836C408.445 905.953 403.085 886.063 397.722 866.16L397.714 866.125L391.57 867.816L385.422 869.472C390.785 889.374 396.145 909.261 401.516 929.152L401.524 929.187L401.657 930.074C401.622 930.707 401.524 930.824 401.231 931.133C400.926 931.403 400.211 931.828 398.731 931.832C350.856 931.832 302.981 931.832 255.106 931.832C253.497 931.828 252.418 931.305 251.774 930.73C251.141 930.121 250.879 929.562 250.86 928.71L250.887 928.288L250.891 928.253C253.278 908.362 255.661 888.472 258.047 868.573L258.043 868.604C258.215 867.159 258.965 865.725 259.93 864.788C260.91 863.827 261.938 863.468 262.598 863.487C301.43 863.487 340.258 863.487 379.09 863.487C379.758 863.452 381.207 863.905 382.547 865.085C383.899 866.222 385.016 867.929 385.43 869.503L385.422 869.472L391.57 867.816Z" fill="#353535" style="fill:#353535;fill:color(display-p3 0.2078 0.2078 0.2078);fill-opacity:1;"/>
<path d="M335.211 867.816C334.477 861.91 329.602 857.113 324.34 857.113C285.508 857.113 255.602 857.113 216.774 857.113C211.512 857.113 205.919 861.91 204.294 867.816C198.931 887.718 193.567 907.609 188.2 927.496C186.579 933.41 190.579 938.207 197.138 938.207C245.013 938.207 283.958 938.207 331.829 938.207C338.388 938.207 343.11 933.41 342.368 927.496C339.984 907.609 337.598 887.719 335.211 867.816Z" fill="#656565" style="fill:#656565;fill:color(display-p3 0.3952 0.3952 0.3952);fill-opacity:1;"/>
<path d="M335.211 867.816L341.535 867.023C340.965 862.566 338.906 858.64 335.941 855.707C332.98 852.801 328.945 850.754 324.339 850.742C285.507 850.742 255.601 850.742 216.773 850.742C212.179 850.777 208.199 852.711 205.023 855.414C201.851 858.148 199.359 861.789 198.152 866.125L198.144 866.16C192.781 886.062 187.417 905.945 182.046 925.836L182.058 925.809C181.667 927.207 181.468 928.641 181.468 930.075C181.433 934.102 183.198 938.048 186.159 940.645C189.108 943.274 193.042 944.583 197.136 944.571C245.011 944.571 283.956 944.571 331.827 944.571C336.323 944.579 340.55 943.024 343.69 940.192C346.838 937.379 348.831 933.192 348.811 928.712C348.811 928.044 348.768 927.372 348.686 926.704L348.69 926.743C346.307 906.852 343.92 886.962 341.534 867.059V867.024L335.211 867.816L328.887 868.574C331.274 888.473 333.66 908.363 336.043 928.254L336.047 928.289L336.074 928.711C336.054 929.563 335.793 930.125 335.16 930.731C334.515 931.305 333.437 931.829 331.828 931.833C283.957 931.833 245.012 931.833 197.137 931.833C195.657 931.829 194.942 931.403 194.633 931.134C194.34 930.825 194.242 930.7 194.207 930.075L194.34 929.188L194.348 929.153C199.715 909.262 205.082 889.376 210.446 869.473L210.434 869.504C210.852 867.93 211.969 866.223 213.313 865.086C214.657 863.906 216.106 863.453 216.774 863.488C255.602 863.488 285.508 863.488 324.34 863.488C324.996 863.468 326.028 863.828 327.004 864.789C327.977 865.727 328.723 867.16 328.891 868.605L328.887 868.574L335.211 867.816Z" fill="#353535" style="fill:#353535;fill:color(display-p3 0.2078 0.2078 0.2078);fill-opacity:1;"/>
<path d="M441.996 1009.13C439.496 1018.23 430.898 1025.61 422.797 1025.61C363.055 1025.61 303.313 1025.61 243.567 1025.61C235.465 1025.6 227.977 1018.23 226.837 1009.13C223.165 978.528 219.501 947.923 215.825 917.321C214.684 908.216 221.95 900.848 232.04 900.844C305.7 900.844 379.356 900.844 453.009 900.844C463.107 900.844 469.263 908.215 466.759 917.321C458.504 947.923 450.25 978.528 441.996 1009.13Z" fill="#444444" style="fill:#444444;fill:color(display-p3 0.2667 0.2667 0.2667);fill-opacity:1;"/>
<path d="M441.996 1009.13L435.855 1007.44C435 1010.61 432.91 1013.76 430.347 1015.94C427.792 1018.16 424.886 1019.27 422.796 1019.23C363.054 1019.23 303.312 1019.23 243.566 1019.23C241.488 1019.25 239.097 1018.24 237.062 1016.23C235.031 1014.25 233.527 1011.37 233.16 1008.34V1008.37C229.488 977.761 225.824 947.167 222.148 916.557V916.526L222.074 915.44C222.097 913.143 222.965 911.311 224.617 909.784C226.273 908.296 228.785 907.214 232.039 907.214C305.699 907.214 379.355 907.214 453.008 907.214C455.992 907.222 457.965 908.112 459.145 909.159C460.313 910.241 460.911 911.452 460.946 913.342C460.946 914.006 460.852 914.768 460.614 915.635L460.61 915.655C452.356 946.26 444.098 976.862 435.848 1007.47L435.856 1007.44L441.996 1009.13L448.148 1010.78C456.398 980.187 464.656 949.578 472.91 918.98L472.902 918.996C473.418 917.113 473.687 915.215 473.683 913.344C473.718 908.047 471.452 903.012 467.609 899.637C463.781 896.235 458.597 894.461 453.007 894.473C379.355 894.473 305.698 894.473 232.038 894.473C225.905 894.473 220.245 896.574 216.085 900.332C211.921 904.051 209.315 909.52 209.335 915.441C209.335 916.328 209.394 917.218 209.503 918.105V918.074C213.175 948.679 216.839 979.281 220.515 1009.89V1009.92C221.285 1015.97 224.093 1021.34 228.12 1025.32C232.14 1029.27 237.542 1031.96 243.561 1031.97C303.311 1031.97 363.053 1031.97 422.795 1031.97C428.811 1031.94 434.252 1029.36 438.643 1025.61C443.03 1021.83 446.491 1016.74 448.135 1010.82L448.147 1010.79L441.996 1009.13Z" fill="#353535" style="fill:#353535;fill:color(display-p3 0.2078 0.2078 0.2078);fill-opacity:1;"/>
<path d="M355.289 1009.13C354.156 1018.23 346.664 1025.61 338.559 1025.61C278.817 1025.61 232.809 1025.61 173.063 1025.61C164.961 1025.6 156.368 1018.23 153.868 1009.13C145.614 978.528 137.36 947.923 129.106 917.321C126.606 908.216 132.766 900.848 142.852 900.844C216.508 900.844 276.426 900.844 350.086 900.844C360.176 900.844 367.438 908.215 366.301 917.321C362.633 947.923 358.961 978.528 355.289 1009.13Z" fill="#656565" style="fill:#656565;fill:color(display-p3 0.3952 0.3952 0.3952);fill-opacity:1;"/>
<path d="M355.289 1009.13L348.965 1008.34C348.598 1011.38 347.094 1014.25 345.067 1016.23C343.032 1018.25 340.641 1019.25 338.559 1019.23C278.817 1019.23 232.809 1019.23 173.063 1019.23C170.977 1019.26 168.067 1018.16 165.512 1015.94C162.949 1013.76 160.864 1010.61 160.008 1007.44L160.016 1007.47C151.762 976.864 143.512 946.262 135.254 915.657L135.246 915.637C135.012 914.778 134.918 914.008 134.918 913.336C134.953 911.449 135.551 910.234 136.719 909.156C137.899 908.109 139.867 907.215 142.848 907.215C216.508 907.215 276.426 907.215 350.086 907.215C353.34 907.215 355.848 908.297 357.508 909.785C359.156 911.312 360.027 913.148 360.047 915.449L359.977 916.547C356.309 947.168 352.637 977.762 348.965 1008.37V1008.34L355.289 1009.13L361.609 1009.89C365.285 979.282 368.957 948.68 372.621 918.074C372.726 917.211 372.785 916.328 372.785 915.449C372.805 909.523 370.203 904.051 366.039 900.332C361.879 896.574 356.219 894.473 350.086 894.473C276.426 894.473 216.508 894.473 142.852 894.473C137.266 894.461 132.082 896.231 128.254 899.637C124.41 903.004 122.145 908.047 122.18 913.336C122.18 915.215 122.446 917.113 122.965 919.004L122.957 918.981C131.211 949.579 139.465 980.18 147.715 1010.79L147.723 1010.82C149.368 1016.74 152.832 1021.83 157.215 1025.61C161.61 1029.36 167.047 1031.94 173.055 1031.97C232.809 1031.97 278.817 1031.97 338.559 1031.97C344.578 1031.96 349.989 1029.27 354.008 1025.32C358.031 1021.34 360.844 1015.97 361.61 1009.91V1009.89L355.289 1009.13Z" fill="#353535" style="fill:#353535;fill:color(display-p3 0.2078 0.2078 0.2078);fill-opacity:1;"/>
<path d="M362.212 941.312H281.872C278.325 941.312 276.161 943.907 277.04 947.098C279.938 957.844 282.841 968.598 285.739 979.352C286.618 982.547 289.637 985.145 292.481 985.145H356.855L362.212 941.312Z" fill="#505050" style="fill:#505050;fill:color(display-p3 0.3137 0.3137 0.3137);fill-opacity:1;"/>
<path d="M362.211 941.313V934.943H281.871C279.062 934.935 276.195 935.845 273.996 937.802C271.777 939.732 270.437 942.739 270.473 945.703C270.473 946.746 270.625 947.793 270.895 948.777L270.887 948.757C273.785 959.499 276.688 970.253 279.586 981.007L279.594 981.038C280.43 984.011 282.09 986.429 284.223 988.276C286.36 990.085 289.094 991.475 292.481 991.506H356.856C360.083 991.506 362.786 989.119 363.18 985.908L368.532 942.077C368.755 940.268 368.188 938.447 366.981 937.084C365.774 935.725 364.032 934.939 362.211 934.939V941.313L355.887 940.541L351.215 978.771H292.48V979.619L292.82 978.809L292.48 978.771V979.619L292.82 978.809L292.3 978.391L291.878 977.661L291.886 977.697C288.988 966.939 286.085 956.184 283.187 945.438L283.183 945.416L282.128 945.704H283.21L283.183 945.416L282.128 945.704H283.21H281.022L282.46 947.322L283.21 945.704H281.022L282.46 947.322L281.378 946.103L281.921 947.657L282.46 947.322L281.378 946.103L281.921 947.657L281.714 947.063L281.816 947.681L281.921 947.657L281.714 947.063L281.816 947.681H281.871H362.211V941.313Z" fill="#353535" style="fill:#353535;fill:color(display-p3 0.2078 0.2078 0.2078);fill-opacity:1;"/>
<path d="M392.625 710.926C392.625 749.465 361.379 780.711 322.832 780.711C284.289 780.711 253.039 749.465 253.039 710.926C253.039 672.375 284.289 641.129 322.832 641.129C361.379 641.129 392.625 672.375 392.625 710.926Z" fill="#505050" style="fill:#505050;fill:color(display-p3 0.3137 0.3137 0.3137);fill-opacity:1;"/>
<path d="M392.625 710.926H386.258C386.254 728.453 379.168 744.27 367.68 755.762C356.184 767.25 340.367 774.332 322.832 774.34C305.301 774.332 289.484 767.25 277.984 755.762C266.5 744.27 259.414 728.453 259.41 710.926C259.414 693.387 266.5 677.567 277.984 666.074C289.484 654.582 305.3 647.5 322.832 647.496C340.367 647.5 356.18 654.582 367.68 666.074C379.168 677.566 386.254 693.387 386.258 710.926H392.625H398.996C398.992 668.852 364.898 634.762 322.832 634.754C280.769 634.762 246.676 668.852 246.672 710.926C246.676 752.989 280.77 787.078 322.832 787.078C364.898 787.078 398.992 752.988 398.996 710.926H392.625Z" fill="#353535" style="fill:#353535;fill:color(display-p3 0.2078 0.2078 0.2078);fill-opacity:1;"/>
<path d="M267.16 696.531C267.16 733.699 297.254 763.797 334.433 763.797C337.953 763.797 340.8 760.945 340.8 757.43C340.8 753.91 337.952 751.063 334.433 751.063C319.339 751.051 305.745 744.969 295.863 735.094C285.988 725.211 279.902 711.621 279.898 696.531C279.898 693.008 277.046 690.164 273.531 690.164C270.012 690.164 267.16 693.008 267.16 696.531Z" fill="#A8A8A8" style="fill:#A8A8A8;fill:color(display-p3 0.6606 0.6606 0.6606);fill-opacity:1;"/>
<path d="M193.195 988.848V1017.11C193.195 1020.62 196.043 1023.47 199.562 1023.47C203.081 1023.47 205.933 1020.62 205.933 1017.11V988.848C205.933 985.332 203.081 982.473 199.562 982.473C196.043 982.473 193.195 985.332 193.195 988.848Z" fill="#353535" style="fill:#353535;fill:color(display-p3 0.2078 0.2078 0.2078);fill-opacity:1;"/>
<path d="M222.371 988.848V1017.11C222.371 1020.62 225.223 1023.47 228.742 1023.47C232.261 1023.47 235.109 1020.62 235.109 1017.11V988.848C235.109 985.332 232.261 982.473 228.742 982.473C225.223 982.473 222.371 985.332 222.371 988.848Z" fill="#353535" style="fill:#353535;fill:color(display-p3 0.2078 0.2078 0.2078);fill-opacity:1;"/>
<path d="M251.98 988.848V1017.11C251.98 1020.62 254.832 1023.47 258.351 1023.47C261.871 1023.47 264.722 1020.62 264.722 1017.11V988.848C264.722 985.332 261.87 982.473 258.351 982.473C254.832 982.473 251.98 985.332 251.98 988.848Z" fill="#353535" style="fill:#353535;fill:color(display-p3 0.2078 0.2078 0.2078);fill-opacity:1;"/>
<path d="M11.0896 1031.97H2120.08C2123.6 1031.97 2126.45 1029.12 2126.45 1025.61C2126.45 1022.09 2123.6 1019.23 2120.08 1019.23H11.0896C7.56965 1019.23 4.72266 1022.09 4.72266 1025.61C4.72266 1029.12 7.56965 1031.97 11.0896 1031.97Z" fill="#353535" style="fill:#353535;fill:color(display-p3 0.2078 0.2078 0.2078);fill-opacity:1;"/>
</g>
<defs>
<clipPath id="clip0_884_4051">
<rect width="2132" height="1070" fill="white" style="fill:white;fill-opacity:1;"/>
</clipPath>
</defs>
</svg>
