<svg width="920" height="920" viewBox="0 0 920 920" fill="none" xmlns="http://www.w3.org/2000/svg">
<rect width="920" height="920" fill="url(#paint0_linear_3550_17794)"/>
<path d="M214.28 483.151C214.118 483.17 213.919 483.189 213.72 483.189C211.552 483.189 209.799 481.319 209.799 479.006C209.799 478.794 209.817 478.582 209.835 478.39V381.816H193.445C193.283 381.835 193.102 381.854 192.921 381.854C190.753 381.854 189 379.984 189 377.671C189 377.459 189.018 377.247 189.036 377.035V371.156C189.036 371.04 189.018 370.905 189.018 370.751C189.018 369.575 189.379 368.477 190.012 367.59C191.078 366.645 192.415 366.048 193.897 365.932H193.915L209.835 363.831V344.458C209.835 318.178 221.653 305.026 245.289 305C251.614 305.058 257.703 306.002 263.486 307.757L262.998 307.641C264.389 307.911 265.564 308.682 266.431 309.761C267.082 310.956 267.461 312.402 267.461 313.944C267.461 314.214 267.443 314.484 267.425 314.734V314.696V320.845C267.425 323.833 266.341 325.317 264.082 325.317C262.058 325.24 260.125 324.989 258.263 324.585L258.498 324.623C256.131 324.161 253.384 323.891 250.602 323.891C250.457 323.891 250.294 323.891 250.15 323.891C249.535 323.814 248.831 323.775 248.108 323.775C243.518 323.775 239.253 325.375 235.82 328.074L235.874 328.035C233.29 331.196 231.718 335.36 231.718 339.909C231.718 340.507 231.754 341.104 231.808 341.702V341.625V363.368H261.715C261.896 363.33 262.094 363.33 262.293 363.33C264.443 363.33 266.196 365.2 266.196 367.493C266.196 367.706 266.178 367.898 266.16 368.091V368.072V377.054C266.178 377.228 266.196 377.421 266.196 377.633C266.196 379.965 264.425 381.835 262.257 381.835C262.058 381.835 261.877 381.816 261.697 381.796H231.808V478.39C231.827 478.563 231.845 478.775 231.845 478.987C231.845 481.3 230.092 483.17 227.923 483.17C227.725 483.17 227.544 483.151 227.363 483.131L214.28 483.151ZM296.139 342.087C295.904 342.107 295.651 342.107 295.38 342.107C291.784 342.107 288.495 340.642 286.037 338.213L286.055 338.232C283.797 335.495 282.423 331.89 282.423 327.939C282.423 323.987 283.797 320.402 286.055 317.645L286.037 317.664C288.477 315.216 291.766 313.713 295.38 313.713C295.651 313.713 295.922 313.713 296.193 313.732H296.157C296.374 313.713 296.645 313.713 296.916 313.713C300.53 313.713 303.8 315.216 306.24 317.664C308.481 320.402 309.854 323.987 309.854 327.939C309.854 331.89 308.481 335.476 306.222 338.232L306.24 338.213C303.8 340.622 300.512 342.107 296.916 342.107C296.663 342.107 296.392 342.107 296.139 342.087ZM289.489 483.151C289.326 483.17 289.146 483.189 288.947 483.189C286.778 483.189 285.007 481.32 285.007 478.987C285.007 478.775 285.025 478.582 285.044 478.37V478.39V368.072C285.025 367.898 285.007 367.706 285.007 367.493C285.007 365.2 286.76 363.33 288.911 363.33C289.109 363.33 289.29 363.349 289.489 363.368H289.471H302.554C302.716 363.349 302.915 363.33 303.114 363.33C305.264 363.33 306.999 365.18 306.999 367.474C306.999 367.686 306.981 367.898 306.963 368.091V368.072V478.39C306.981 478.563 306.999 478.775 306.999 479.006C306.999 481.319 305.246 483.189 303.078 483.189C302.897 483.189 302.698 483.17 302.536 483.151H289.489ZM340.266 483.151C340.104 483.17 339.923 483.189 339.742 483.189C337.574 483.189 335.821 481.319 335.821 479.006C335.821 478.794 335.839 478.582 335.857 478.37V478.39V368.072C335.839 367.898 335.821 367.686 335.821 367.474C335.821 365.18 337.556 363.33 339.706 363.33C339.905 363.33 340.104 363.349 340.284 363.368H350.024C350.133 363.368 350.259 363.349 350.386 363.349C351.524 363.349 352.608 363.696 353.494 364.313L353.476 364.294C354.397 365.18 354.994 366.414 355.102 367.802V367.821L356.674 381.064C360.071 377.074 363.758 373.508 367.733 370.327L367.932 370.173C374.22 365.315 382.117 362.385 390.628 362.385C390.755 362.385 390.863 362.385 390.99 362.385H390.972C392.761 362.385 394.531 362.462 396.284 362.617C396.302 362.617 396.338 362.617 396.375 362.617C398.435 362.617 400.097 364.39 400.097 366.587C400.097 366.684 400.097 366.78 400.079 366.877V379.618C400.097 379.772 400.115 379.965 400.115 380.139C400.115 382.22 398.525 383.917 396.573 383.917C396.393 383.917 396.212 383.898 396.031 383.878H396.049C394.694 383.878 393.357 383.782 392.038 383.628L392.2 383.647C390.99 383.493 389.562 383.416 388.135 383.416C387.809 383.416 387.43 383.396 387.05 383.396C375.865 383.396 365.619 387.676 357.668 394.789L357.74 394.731V478.37C357.758 478.544 357.776 478.756 357.776 478.968C357.776 481.281 356.024 483.151 353.855 483.151C353.674 483.151 353.494 483.131 353.313 483.112L340.266 483.151ZM462.729 486.698C461.572 486.794 460.235 486.852 458.88 486.852C444.351 486.852 431.16 480.664 421.528 470.621L421.546 470.64C412.782 459.133 407.47 444.309 407.47 428.156C407.47 426.382 407.542 424.647 407.65 422.913L407.632 423.144C407.56 421.891 407.506 420.407 407.506 418.922C407.506 402.788 412.8 387.984 421.637 376.361L421.546 376.495C430.636 366.183 443.52 359.764 457.795 359.764C458.771 359.764 459.747 359.802 460.705 359.86H460.578C461.391 359.802 462.331 359.764 463.289 359.764C474.8 359.764 485.244 364.602 492.924 372.486L492.906 372.467C499.971 381.18 504.29 392.63 504.29 405.159C504.29 406.258 504.254 407.357 504.2 408.436V408.282C504.182 413.718 503.784 419.038 503.007 424.223L503.08 423.645C502.971 425.091 502.447 426.382 501.634 427.404V427.385C500.875 428.001 499.899 428.368 498.851 428.368C498.707 428.368 498.544 428.368 498.399 428.348H428.865C428.829 429.062 428.811 429.871 428.811 430.719C428.811 441.283 432.407 450.959 438.352 458.4L438.298 458.342C444.857 464.453 453.495 468.192 462.964 468.192C464.066 468.192 465.15 468.135 466.216 468.038L466.072 468.057C466.108 468.057 466.144 468.057 466.18 468.057C470.643 468.057 475.016 467.71 479.299 467.036L478.811 467.094C484.811 465.995 489.997 464.607 495.02 462.853L494.225 463.103L496.863 462.255C497.46 462.024 498.164 461.889 498.887 461.87C500.803 461.87 501.706 463.316 501.706 466.13V472.78C501.724 472.973 501.724 473.204 501.724 473.436C501.724 474.785 501.399 476.057 500.839 477.156L500.857 477.117C499.845 478.312 498.58 479.238 497.153 479.835L497.08 479.855C492.545 481.917 487.232 483.633 481.72 484.712L481.251 484.789C475.721 486.004 469.36 486.698 462.855 486.698C462.801 486.698 462.783 486.698 462.729 486.698ZM483.997 412.735C484.16 411.077 484.25 409.149 484.25 407.202C484.25 406.99 484.25 406.759 484.25 406.547V406.586C484.305 405.911 484.323 405.121 484.323 404.311C484.323 396.928 481.901 390.143 477.872 384.823L477.908 384.881C473.607 380.293 467.662 377.44 461.084 377.44C460.506 377.44 459.928 377.459 459.349 377.498H459.422C458.934 377.459 458.356 377.44 457.777 377.44C449.917 377.44 442.815 380.852 437.701 386.384C432.208 393.497 428.865 402.692 428.847 412.715L483.997 412.735ZM589.347 484.423C588.154 484.616 586.799 484.731 585.39 484.731C570.048 484.731 557.616 471.469 557.616 455.104C557.616 453.62 557.724 452.155 557.923 450.728L557.905 450.882V381.43H541.967C541.804 381.449 541.605 381.469 541.425 381.469C539.256 381.469 537.485 379.58 537.485 377.267C537.485 377.074 537.503 376.881 537.522 376.688V370.79C537.522 370.693 537.522 370.578 537.522 370.481C537.522 369.267 537.901 368.149 538.552 367.243V367.262C539.6 366.337 540.937 365.739 542.4 365.643L558.61 363.484L561.483 334.223C561.483 334.184 561.483 334.126 561.483 334.069C561.483 331.543 563.398 329.481 565.783 329.481C565.91 329.481 566.054 329.481 566.181 329.5H575.415C575.578 329.481 575.758 329.462 575.957 329.462C578.125 329.462 579.878 331.331 579.878 333.644C579.878 333.856 579.86 334.049 579.842 334.242V363.041H608.664C608.827 363.021 609.008 363.002 609.206 363.002C611.357 363.002 613.11 364.872 613.11 367.166C613.11 367.378 613.091 367.59 613.055 367.802V367.783V376.746C613.073 376.92 613.091 377.132 613.091 377.344C613.091 379.637 611.339 381.507 609.188 381.507C608.989 381.507 608.809 381.488 608.628 381.469H579.824V449.726C579.77 450.227 579.752 450.805 579.752 451.384C579.752 455.451 581.161 459.19 583.51 462.024L583.492 462.005C586.474 464.279 590.196 465.648 594.226 465.648C594.859 465.648 595.491 465.609 596.105 465.552H596.033C599.756 465.474 603.333 465.05 606.803 464.299L606.423 464.376C607.706 464.048 609.224 463.778 610.778 463.662H610.869C610.959 463.643 611.086 463.643 611.194 463.643C612.043 463.643 612.802 464.067 613.308 464.723C613.724 465.571 613.977 466.573 613.977 467.653C613.977 467.826 613.977 468 613.959 468.173V474.554C613.977 474.708 613.977 474.901 613.977 475.093C613.977 476.578 613.634 477.965 613.037 479.18L613.055 479.122C612.206 480.356 610.977 481.242 609.55 481.589H609.514C603.858 483.401 597.334 484.442 590.594 484.442C590.16 484.442 589.727 484.442 589.293 484.423H589.365H589.347ZM671.621 482.784C671.44 482.804 671.224 482.804 671.007 482.804C669.579 482.804 668.224 482.438 667.031 481.801L667.085 481.821C665.658 480.394 664.61 478.544 664.104 476.481L664.086 476.404L624.927 371.503C624.614 370.552 624.271 369.614 623.897 368.689C623.572 367.918 623.373 367.031 623.373 366.086C623.373 364.062 624.476 363.002 626.662 363.002H639.763C639.962 362.983 640.215 362.983 640.45 362.983C641.895 362.983 643.251 363.349 644.443 364.004L644.389 363.985C645.744 365.45 646.756 367.281 647.244 369.344L647.262 369.421L677.62 461.504L707.942 369.421C708.484 367.281 709.478 365.45 710.834 363.966C711.99 363.349 713.381 362.983 714.827 362.983C715.044 362.983 715.279 362.983 715.496 363.002H715.46H727.657C729.916 363.002 731 364.062 731 366.086C730.964 367.031 730.765 367.918 730.422 368.727L730.44 368.689C730.078 369.652 729.717 370.558 729.446 371.503L690.45 476.404C689.926 478.563 688.896 480.394 687.469 481.821C686.33 482.438 684.975 482.804 683.547 482.804C683.331 482.804 683.114 482.804 682.897 482.784H682.933H671.621ZM625.723 558.791C577.692 593.989 518.295 615 454.29 615C453.965 615 453.657 615 453.332 615H453.386C452.898 615 452.32 615 451.76 615C371.293 615 297.946 582.481 242.615 529.105L242.886 529.356C238.513 525.115 242.434 519.39 247.62 522.609C308.047 560.121 380.635 582.269 458.048 582.269C458.121 582.269 458.193 582.269 458.265 582.269C516.343 581.941 571.512 569.065 621.639 546.03L618.91 547.148C626.771 543.601 633.402 552.719 625.686 558.791H625.723ZM645.094 535.158C651.075 543.273 638.462 576.833 632.86 591.83C631.126 596.398 634.776 598.23 638.661 594.799C655.231 578.549 665.586 555.321 665.586 529.51C665.586 525.79 665.369 522.127 664.953 518.523L664.989 518.947C655.882 515.014 645.329 512.72 634.27 512.72C617.681 512.72 602.231 517.867 589.221 526.734L589.564 526.522C585.426 529.587 586.149 533.847 590.684 533.25C605.701 531.322 639.167 527.062 645.112 535.177L645.094 535.158Z" fill="white" style="fill:white;fill-opacity:1;"/>
<defs>
<linearGradient id="paint0_linear_3550_17794" x1="460" y1="0" x2="460" y2="920" gradientUnits="userSpaceOnUse">
<stop stop-color="#FE6000" style="stop-color:#FE6000;stop-color:color(display-p3 0.9961 0.3765 0.0000);stop-opacity:1;"/>
<stop offset="1" stop-color="#FE1500" style="stop-color:#FE1500;stop-color:color(display-p3 0.9961 0.0824 0.0000);stop-opacity:1;"/>
</linearGradient>
</defs>
</svg>
