<svg width="67" height="67" viewBox="0 0 67 67" fill="none" xmlns="http://www.w3.org/2000/svg">
<path d="M2.63933 33.5C1.1245 33.5 -0.115162 32.2718 0.00852353 30.7644C0.513378 24.6114 2.71381 18.6977 6.39108 13.6905C10.6106 7.9449 16.555 3.69214 23.3605 1.55001C30.1661 -0.592116 37.4784 -0.512047 44.2353 1.77859C50.9922 4.06923 56.8417 8.45113 60.934 14.2877C65.0264 20.1244 67.1484 27.1117 66.9919 34.2347C66.8354 41.3577 64.4085 48.2454 60.0638 53.8972C55.719 59.549 49.6827 63.6706 42.8318 65.6632C36.8613 67.3997 30.543 67.4405 24.5798 65.8086C23.1189 65.4088 22.3872 63.8255 22.9056 62.4043C23.424 60.9831 24.9961 60.2646 26.4632 60.6411C31.3234 61.8881 36.4476 61.8151 41.2976 60.4045C47.0284 58.7377 52.0778 55.29 55.7122 50.5623C59.3466 45.8345 61.3767 40.073 61.5076 34.1146C61.6385 28.1562 59.8634 22.3113 56.4401 17.4289C53.0169 12.5466 48.1238 8.88113 42.4716 6.96501C36.8195 5.04889 30.7027 4.98191 25.0099 6.7738C19.317 8.5657 14.3446 12.1231 10.8149 16.9293C7.8278 20.9967 6.00567 25.7792 5.51606 30.7657C5.36827 32.271 4.15416 33.5 2.63933 33.5Z" fill="url(#paint0_linear_498_2408)" style=""/>
<defs>
<linearGradient id="paint0_linear_498_2408" x1="3.90267" y1="25.5" x2="26.8862" y2="63.5314" gradientUnits="userSpaceOnUse">
<stop stop-color="white" stop-opacity="0" style="stop-color:none;stop-opacity:0;"/>
<stop offset="1" style="stop-color:black;stop-opacity:1;"/>
</linearGradient>
</defs>
</svg>
